# WaveFront *.obj file (generated by Cheetah3D)

mtllib MQ-9.mtl

g Propeller
v 4.995107 2.249967 -0.079338
v 4.994796 2.267795 -0.056101
v 4.994600 2.279002 -0.029040
v 4.994534 2.282824 -0.000001
v 4.994600 2.279002 0.029039
v 4.994796 2.267795 0.056099
v 4.995107 2.249967 0.079337
v 4.995512 2.226733 0.097167
v 4.995985 2.199677 0.108376
v 4.996491 2.170642 0.112199
v 4.996998 2.141607 0.108376
v 4.997471 2.114550 0.097167
v 4.997876 2.091316 0.079337
v 4.998188 2.073489 0.056099
v 4.998383 2.062282 0.029039
v 4.998450 2.058459 -0.000001
v 4.998383 2.062282 -0.029040
v 4.998188 2.073489 -0.056100
v 4.997876 2.091316 -0.079338
v 4.997471 2.114550 -0.097168
v 4.996998 2.141607 -0.108377
v 4.996491 2.170642 -0.112200
v 4.995985 2.199677 -0.108377
v 4.995512 2.226733 -0.097168
v 4.914490 2.221028 -0.193356
v 4.913647 2.269299 -0.173358
v 4.912924 2.310751 -0.141547
v 4.912368 2.342557 -0.100089
v 4.912019 2.362552 -0.051810
v 4.911901 2.369372 -0.000001
v 4.912019 2.362552 0.051809
v 4.912368 2.342557 0.100088
v 4.912924 2.310751 0.141546
v 4.913647 2.269299 0.173358
v 4.914490 2.221028 0.193356
v 4.915394 2.169226 0.200176
v 4.916298 2.117424 0.193356
v 4.917141 2.069153 0.173358
v 4.917864 2.027701 0.141546
v 4.918419 1.995894 0.100088
v 4.918768 1.975900 0.051809
v 4.918888 1.969080 -0.000001
v 4.918768 1.975900 -0.051810
v 4.918419 1.995894 -0.100089
v 4.917864 2.027701 -0.141547
v 4.917141 2.069153 -0.173358
v 4.916298 2.117424 -0.193356
v 4.915394 2.169226 -0.200177
v 4.788635 2.228230 -0.228427
v 4.787640 2.285257 -0.204802
v 4.786785 2.334227 -0.167220
v 4.786129 2.371803 -0.118243
v 4.785717 2.395424 -0.061207
v 4.785576 2.403481 -0.000001
v 4.785717 2.395424 0.061206
v 4.786129 2.371803 0.118242
v 4.786785 2.334227 0.167220
v 4.787640 2.285257 0.204802
v 4.788635 2.228230 0.228427
v 4.789703 2.167032 0.236485
v 4.790771 2.105835 0.228427
v 4.791767 2.048808 0.204802
v 4.792622 1.999837 0.167220
v 4.793277 1.962262 0.118242
v 4.793690 1.938641 0.061206
v 4.793830 1.930584 -0.000001
v 4.793690 1.938641 -0.061207
v 4.793277 1.962262 -0.118243
v 4.792622 1.999837 -0.167220
v 4.791767 2.048808 -0.204802
v 4.790771 2.105835 -0.228427
v 4.789703 2.167032 -0.236485
v 4.543881 2.008584 -0.266969
v 4.544995 1.944749 -0.217979
v 4.545850 1.895767 -0.154134
v 4.546388 1.864975 -0.079786
v 4.546571 1.854473 -0.000001
v 4.546388 1.864975 0.079785
v 4.545850 1.895767 0.154134
v 4.544995 1.944749 0.217979
v 4.543881 2.008584 0.266968
v 4.542583 2.082921 0.297764
v 4.541191 2.162694 0.308268
v 4.539798 2.242468 0.297764
v 4.538501 2.316806 0.266968
v 4.537386 2.380640 0.217979
v 4.536531 2.429622 0.154134
v 4.535994 2.460414 0.079785
v 4.535811 2.470916 -0.000001
v 4.535994 2.460414 -0.079786
v 4.536531 2.429622 -0.154135
v 4.537386 2.380640 -0.217979
v 4.538501 2.316806 -0.266969
v 4.539798 2.242468 -0.297765
v 4.541191 2.162694 -0.308269
v 4.542583 2.082921 -0.297765
v 4.664052 2.164839 -0.272779
v 4.662820 2.235429 -0.263485
v 4.661672 2.301208 -0.236234
v 4.660686 2.357693 -0.192884
v 4.659929 2.401037 -0.136390
v 4.659454 2.428283 -0.070601
v 4.659291 2.437577 -0.000001
v 4.659454 2.428283 0.070600
v 4.659929 2.401037 0.136389
v 4.660686 2.357693 0.192884
v 4.661672 2.301208 0.236233
v 4.662820 2.235429 0.263484
v 4.664052 2.164839 0.272779
v 4.665284 2.094249 0.263484
v 4.666432 2.028470 0.236233
v 4.667418 1.971985 0.192884
v 4.668175 1.928642 0.136389
v 4.668651 1.901395 0.070600
v 4.668813 1.892101 -0.000001
v 4.668651 1.901395 -0.070601
v 4.668175 1.928642 -0.136390
v 4.667418 1.971984 -0.192884
v 4.665284 2.094249 -0.263485
v 4.666432 2.028470 -0.236234
v 4.917561 2.341356 -0.099343
v 4.917214 2.361202 -0.051424
v 4.917096 2.367971 -0.000001
v 4.917214 2.361202 0.051423
v 4.917561 2.341356 0.099342
v 4.918111 2.309787 0.140491
v 4.918829 2.268643 0.172065
v 4.919666 2.220732 0.191914
v 4.920563 2.169316 0.198684
v 4.921461 2.117901 0.191914
v 4.922297 2.069989 0.172065
v 4.923015 2.028846 0.140491
v 4.923566 1.997277 0.099342
v 4.923913 1.977431 0.051423
v 4.924031 1.970662 -0.000001
v 4.923913 1.977431 -0.051424
v 4.923566 1.997277 -0.099343
v 4.923015 2.028846 -0.140491
v 4.922297 2.069989 -0.172066
v 4.921461 2.117901 -0.191915
v 4.920563 2.169316 -0.198685
v 4.919666 2.220732 -0.191915
v 4.918111 2.309787 -0.140491
v 4.918829 2.268643 -0.172066
v 4.473903 1.843382 -0.085232
v 4.473329 1.876275 -0.164655
v 4.472416 1.928601 -0.232858
v 4.471226 1.996793 -0.285191
v 4.469840 2.076205 -0.318090
v 4.468352 2.161423 -0.329311
v 4.466865 2.246642 -0.318090
v 4.465478 2.326054 -0.285191
v 4.464288 2.394245 -0.232858
v 4.463375 2.446571 -0.164656
v 4.462801 2.479464 -0.085232
v 4.462605 2.490683 -0.000001
v 4.462801 2.479464 0.085231
v 4.463375 2.446571 0.164655
v 4.464288 2.394245 0.232857
v 4.465478 2.326054 0.285191
v 4.466865 2.246642 0.318089
v 4.468352 2.161423 0.329310
v 4.469840 2.076205 0.318089
v 4.471226 1.996793 0.285191
v 4.472416 1.928601 0.232857
v 4.473329 1.876275 0.164655
v 4.468352 2.161423 -0.000001
v 4.474099 1.832163 -0.000001
v 4.473903 1.843382 0.085231
v 5.087965 2.164344 -0.002115
v 5.087951 2.165160 -0.004086
v 5.087929 2.166459 -0.005778
v 5.087899 2.168151 -0.007077
v 5.087865 2.170121 -0.007893
v 5.087828 2.172236 -0.008172
v 5.087791 2.174350 -0.007893
v 5.087757 2.176321 -0.007077
v 5.087727 2.178013 -0.005778
v 5.087704 2.179311 -0.004086
v 5.087690 2.180127 -0.002115
v 5.087685 2.180406 -0.000001
v 5.087690 2.180127 0.002114
v 5.087704 2.179311 0.004085
v 5.087727 2.178013 0.005777
v 5.087757 2.176321 0.007076
v 5.087791 2.174350 0.007892
v 5.087828 2.172236 0.008171
v 5.087865 2.170121 0.007892
v 5.087899 2.168151 0.007076
v 5.087929 2.166459 0.005777
v 5.087951 2.165160 0.004085
v 5.087965 2.164344 0.002114
v 5.087970 2.164066 -0.000001
v 5.093886 2.172342 -0.000001

vt 0.301728 0.144785
vt 0.301728 0.144240
vt 0.301587 0.144259
vt 0.301456 0.144313
vt 0.301343 0.144400
vt 0.301257 0.144513
vt 0.301202 0.144644
vt 0.301184 0.144785
vt 0.301202 0.144926
vt 0.301257 0.145058
vt 0.301343 0.145170
vt 0.301456 0.145257
vt 0.301587 0.145311
vt 0.301728 0.145330
vt 0.301869 0.145311
vt 0.302001 0.145257
vt 0.302114 0.145170
vt 0.302200 0.145058
vt 0.302255 0.144926
vt 0.302273 0.144785
vt 0.302255 0.144644
vt 0.302200 0.144513
vt 0.302114 0.144400
vt 0.302001 0.144313
vt 0.301869 0.144259
vt 0.296046 0.123579
vt 0.301728 0.122831
vt 0.290751 0.125772
vt 0.286205 0.129261
vt 0.282716 0.133808
vt 0.280523 0.139103
vt 0.279775 0.144785
vt 0.280523 0.150467
vt 0.282716 0.155762
vt 0.286205 0.160309
vt 0.290751 0.163798
vt 0.296046 0.165991
vt 0.301728 0.166739
vt 0.307411 0.165991
vt 0.312706 0.163798
vt 0.317252 0.160309
vt 0.320741 0.155762
vt 0.322934 0.150467
vt 0.323683 0.144785
vt 0.322934 0.139103
vt 0.320741 0.133808
vt 0.317252 0.129261
vt 0.312705 0.125772
vt 0.307411 0.123579
vt 0.296409 0.124934
vt 0.297022 0.127220
vt 0.301728 0.126600
vt 0.301728 0.124234
vt 0.291453 0.126987
vt 0.292636 0.129036
vt 0.287197 0.130253
vt 0.288870 0.131926
vt 0.283931 0.134510
vt 0.285980 0.135693
vt 0.281878 0.139466
vt 0.284163 0.140078
vt 0.281177 0.144785
vt 0.283543 0.144785
vt 0.281878 0.150104
vt 0.284163 0.149492
vt 0.283931 0.155061
vt 0.285980 0.153878
vt 0.287197 0.159317
vt 0.288870 0.157644
vt 0.291453 0.162583
vt 0.292636 0.160534
vt 0.296409 0.164636
vt 0.297022 0.162351
vt 0.301728 0.165336
vt 0.301728 0.162971
vt 0.307048 0.164636
vt 0.306435 0.162351
vt 0.312004 0.162583
vt 0.310821 0.160534
vt 0.316260 0.159317
vt 0.314587 0.157644
vt 0.319526 0.155061
vt 0.317477 0.153878
vt 0.321579 0.150104
vt 0.319294 0.149492
vt 0.322280 0.144785
vt 0.319914 0.144785
vt 0.321579 0.139466
vt 0.319294 0.140078
vt 0.319526 0.134510
vt 0.317477 0.135693
vt 0.316260 0.130253
vt 0.314587 0.131926
vt 0.312004 0.126987
vt 0.310821 0.129036
vt 0.307048 0.124934
vt 0.306435 0.127220
vt 0.307018 0.150074
vt 0.311095 0.154151
vt 0.313200 0.151408
vt 0.308206 0.148525
vt 0.314523 0.148213
vt 0.308954 0.146721
vt 0.314974 0.144785
vt 0.309208 0.144785
vt 0.314523 0.141357
vt 0.308954 0.142849
vt 0.313200 0.138162
vt 0.308206 0.141045
vt 0.311095 0.135419
vt 0.307018 0.139496
vt 0.308351 0.133314
vt 0.305468 0.138307
vt 0.305157 0.131991
vt 0.303664 0.137560
vt 0.301728 0.131540
vt 0.301728 0.137305
vt 0.298300 0.131991
vt 0.299793 0.137560
vt 0.295106 0.133314
vt 0.297988 0.138307
vt 0.292362 0.135419
vt 0.296439 0.139496
vt 0.290257 0.138162
vt 0.295251 0.141045
vt 0.288934 0.141357
vt 0.294503 0.142849
vt 0.288483 0.144785
vt 0.294249 0.144785
vt 0.288934 0.148213
vt 0.294503 0.146721
vt 0.290257 0.151408
vt 0.295251 0.148525
vt 0.292362 0.154151
vt 0.296439 0.150074
vt 0.295106 0.156256
vt 0.297988 0.151263
vt 0.298300 0.157580
vt 0.299793 0.152010
vt 0.301728 0.158031
vt 0.301728 0.152265
vt 0.305157 0.157580
vt 0.303664 0.152010
vt 0.308351 0.156256
vt 0.305468 0.151263
vt 0.316957 0.140705
vt 0.315382 0.136902
vt 0.312876 0.133637
vt 0.309611 0.131132
vt 0.305809 0.129557
vt 0.301728 0.129020
vt 0.297648 0.129557
vt 0.293846 0.131132
vt 0.290580 0.133637
vt 0.288075 0.136902
vt 0.286500 0.140705
vt 0.285963 0.144785
vt 0.286500 0.148866
vt 0.288075 0.152668
vt 0.290580 0.155933
vt 0.293846 0.158439
vt 0.297648 0.160014
vt 0.301728 0.160551
vt 0.305809 0.160014
vt 0.309611 0.158439
vt 0.312876 0.155933
vt 0.315382 0.152668
vt 0.316957 0.148866
vt 0.317494 0.144785
vt 0.315074 0.144785
vt 0.314619 0.141331
vt 0.313286 0.138113
vt 0.311165 0.135349
vt 0.308401 0.133228
vt 0.305182 0.131895
vt 0.301728 0.131440
vt 0.298275 0.131895
vt 0.295056 0.133228
vt 0.292292 0.135349
vt 0.290171 0.138113
vt 0.288838 0.141331
vt 0.288383 0.144785
vt 0.288838 0.148239
vt 0.290171 0.151458
vt 0.292292 0.154222
vt 0.295056 0.156342
vt 0.298275 0.157676
vt 0.301728 0.158130
vt 0.305182 0.157676
vt 0.308401 0.156342
vt 0.311165 0.154222
vt 0.313286 0.151458
vt 0.314619 0.148239

vn 0.896297 -0.439390 0.059900
vn 0.788844 -0.614594 0.000000
vn 0.788471 -0.593189 0.162607
vn 0.895756 -0.408390 0.175612
vn 0.787374 -0.530445 0.314117
vn 0.894708 -0.348507 0.279359
vn 0.785637 -0.430614 0.444237
vn 0.893232 -0.263809 0.364062
vn 0.783363 -0.300506 0.544094
vn 0.891424 -0.160075 0.423957
vn 0.780719 -0.148986 0.606862
vn 0.889406 -0.044376 0.454960
vn 0.777874 0.013593 0.628274
vn 0.887313 0.075404 0.454961
vn 0.775038 0.176140 0.606870
vn 0.885292 0.191103 0.423955
vn 0.772396 0.327654 0.544103
vn 0.883474 0.294840 0.364065
vn 0.770123 0.457776 0.444244
vn 0.881992 0.379536 0.279360
vn 0.768376 0.557610 0.314116
vn 0.880944 0.439427 0.175616
vn 0.767278 0.620359 0.162600
vn 0.880408 0.470418 0.059900
vn 0.766904 0.641762 0.000002
vn 0.880409 0.470417 -0.059898
vn 0.767279 0.620359 -0.162598
vn 0.880945 0.439427 -0.175614
vn 0.768376 0.557610 -0.314117
vn 0.881993 0.379537 -0.279358
vn 0.770123 0.457778 -0.444241
vn 0.883475 0.294839 -0.364062
vn 0.772397 0.327659 -0.544097
vn 0.885293 0.191103 -0.423953
vn 0.775041 0.176138 -0.606867
vn 0.887315 0.075404 -0.454958
vn 0.777874 0.013593 -0.628273
vn 0.889407 -0.044376 -0.454958
vn 0.780720 -0.148984 -0.606861
vn 0.891425 -0.160075 -0.423955
vn 0.783365 -0.300511 -0.544089
vn 0.893233 -0.263809 -0.364059
vn 0.785636 -0.430617 -0.444235
vn 0.894708 -0.348507 -0.279357
vn 0.787374 -0.530445 -0.314118
vn 0.895756 -0.408390 -0.175610
vn 0.788471 -0.593189 -0.162607
vn 0.896298 -0.439389 -0.059898
vn -0.999848 -0.017452 -0.000001
vn 0.293637 -0.923010 0.248656
vn 0.294195 -0.955745 -0.000000
vn 0.291963 -0.827047 0.480366
vn 0.289298 -0.674392 0.679339
vn 0.285827 -0.475448 0.832017
vn 0.281782 -0.243774 0.927994
vn 0.277442 0.004843 0.960730
vn 0.273103 0.253459 0.927994
vn 0.269059 0.485133 0.832017
vn 0.265586 0.684077 0.679339
vn 0.262922 0.836732 0.480366
vn 0.261245 0.932696 0.248656
vn 0.260673 0.965427 -0.000000
vn 0.260661 0.965430 0.000000
vn 0.261246 0.932696 -0.248654
vn 0.262923 0.836731 -0.480367
vn 0.265587 0.684077 -0.679340
vn 0.269058 0.485137 -0.832016
vn 0.273102 0.253459 -0.927994
vn 0.277443 0.004843 -0.960730
vn 0.281782 -0.243774 -0.927994
vn 0.285825 -0.475451 -0.832016
vn 0.289298 -0.674395 -0.679337
vn 0.291963 -0.827047 -0.480365
vn 0.293638 -0.923010 -0.248657
vn 0.743165 0.479608 -0.466564
vn 0.525974 0.606017 -0.596737
vn 0.529005 0.431265 -0.730865
vn 0.745551 0.342977 -0.571419
vn 0.532530 0.227757 -0.815193
vn 0.748328 0.183861 -0.637338
vn 0.536342 0.009360 -0.843949
vn 0.751307 0.013116 -0.659822
vn 0.540162 -0.209040 -0.815185
vn 0.754288 -0.157632 -0.637340
vn 0.543727 -0.412544 -0.730869
vn 0.757065 -0.316749 -0.571422
vn 0.546808 -0.587290 -0.596735
vn 0.759449 -0.453384 -0.466562
vn 0.549153 -0.721383 -0.421945
vn 0.761279 -0.558224 -0.329910
vn 0.550592 -0.805691 -0.218424
vn 0.762430 -0.624128 -0.170775
vn 0.551074 -0.834456 -0.000000
vn 0.762822 -0.646608 0.000000
vn 0.550582 -0.805698 0.218427
vn 0.762430 -0.624129 0.170775
vn 0.549118 -0.721403 0.421957
vn 0.761279 -0.558224 0.329910
vn 0.546784 -0.587301 0.596746
vn 0.759449 -0.453382 0.466563
vn 0.543760 -0.412531 0.730851
vn 0.757064 -0.316744 0.571425
vn 0.540214 -0.209027 0.815155
vn 0.754287 -0.157629 0.637342
vn 0.536380 0.009360 0.843925
vn 0.751307 0.013116 0.659823
vn 0.532581 0.227746 0.815162
vn 0.748326 0.183858 0.637341
vn 0.529037 0.431254 0.730848
vn 0.745550 0.342973 0.571423
vn 0.525958 0.606024 0.596744
vn 0.743164 0.479608 0.466565
vn 0.523586 0.740132 0.421973
vn 0.741335 0.584448 0.329913
vn 0.522107 0.824433 0.218438
vn 0.740184 0.650356 0.170776
vn 0.521609 0.853185 0.000000
vn 0.739792 0.672835 0.000002
vn 0.522115 0.824428 -0.218436
vn 0.740185 0.650355 -0.170774
vn 0.523608 0.740120 -0.421967
vn 0.741335 0.584448 -0.329913
vn 0.294220 -0.955738 0.000000

usemtl Paint
f 9548/6862/6422 9549/6861/6421 9550/6860/6420
f 9547/6863/6424 9548/6862/6422 9550/6860/6423
f 9546/6864/6426 9547/6863/6424 9550/6860/6425
f 9545/6865/6428 9546/6864/6426 9550/6860/6427
f 9544/6866/6430 9545/6865/6428 9550/6860/6429
f 9543/6867/6432 9544/6866/6430 9550/6860/6431
f 9542/6868/6434 9543/6867/6432 9550/6860/6433
f 9541/6869/6436 9542/6868/6434 9550/6860/6435
f 9540/6870/6438 9541/6869/6436 9550/6860/6437
f 9539/6871/6440 9540/6870/6438 9550/6860/6439
f 9538/6872/6442 9539/6871/6440 9550/6860/6441
f 9537/6873/6444 9538/6872/6442 9550/6860/6443
f 9536/6874/6446 9537/6873/6444 9550/6860/6445
f 9535/6875/6448 9536/6874/6446 9550/6860/6447
f 9534/6876/6450 9535/6875/6448 9550/6860/6449
f 9533/6877/6452 9534/6876/6450 9550/6860/6451
f 9532/6878/6454 9533/6877/6452 9550/6860/6453
f 9531/6879/6456 9532/6878/6454 9550/6860/6455
f 9530/6880/6458 9531/6879/6456 9550/6860/6457
f 9529/6881/6460 9530/6880/6458 9550/6860/6459
f 9528/6882/6462 9529/6881/6460 9550/6860/6461
f 9527/6883/6464 9528/6882/6462 9550/6860/6463
f 9526/6884/6466 9527/6883/6464 9550/6860/6465
f 9549/6861/6421 9526/6884/6466 9550/6860/6467
f 9523/6860/6468 9524/6886/6468 9525/6885/6468
f 9523/6860/6468 9525/6885/6468 9522/6887/6468
f 9523/6860/6468 9522/6887/6468 9521/6888/6468
f 9523/6860/6468 9521/6888/6468 9520/6889/6468
f 9523/6860/6468 9520/6889/6468 9519/6890/6468
f 9523/6860/6468 9519/6890/6468 9518/6891/6468
f 9523/6860/6468 9518/6891/6468 9517/6892/6468
f 9523/6860/6468 9517/6892/6468 9516/6893/6468
f 9523/6860/6468 9516/6893/6468 9515/6894/6468
f 9523/6860/6468 9515/6894/6468 9514/6895/6468
f 9523/6860/6468 9514/6895/6468 9513/6896/6468
f 9523/6860/6468 9513/6896/6468 9512/6897/6468
f 9523/6860/6468 9512/6897/6468 9511/6898/6468
f 9523/6860/6468 9511/6898/6468 9510/6899/6468
f 9523/6860/6468 9510/6899/6468 9509/6900/6468
f 9523/6860/6468 9509/6900/6468 9508/6901/6468
f 9523/6860/6468 9508/6901/6468 9507/6902/6468
f 9523/6860/6468 9507/6902/6468 9506/6903/6468
f 9523/6860/6468 9506/6903/6468 9505/6904/6468
f 9523/6860/6468 9505/6904/6468 9504/6905/6468
f 9523/6860/6468 9504/6905/6468 9503/6906/6468
f 9523/6860/6468 9503/6906/6468 9502/6907/6468
f 9523/6860/6468 9502/6907/6468 9501/6908/6468
f 9523/6860/6468 9501/6908/6468 9524/6886/6468
f 9433/6912/6470 9471/6911/6470 9470/6910/6469 9434/6909/6469
f 9434/6909/6469 9470/6910/6469 9469/6914/6471 9435/6913/6471
f 9435/6913/6471 9469/6914/6471 9468/6916/6472 9436/6915/6472
f 9436/6915/6472 9468/6916/6472 9467/6918/6473 9437/6917/6473
f 9437/6917/6473 9467/6918/6473 9466/6920/6474 9438/6919/6474
f 9438/6919/6474 9466/6920/6474 9465/6922/6475 9439/6921/6475
f 9439/6921/6475 9465/6922/6475 9464/6924/6476 9440/6923/6476
f 9440/6923/6476 9464/6924/6476 9463/6926/6477 9441/6925/6477
f 9441/6925/6477 9463/6926/6477 9462/6928/6478 9442/6927/6478
f 9442/6927/6478 9462/6928/6478 9461/6930/6479 9443/6929/6479
f 9443/6929/6479 9461/6930/6479 9460/6932/6480 9444/6931/6480
f 9444/6931/6480 9460/6932/6480 9459/6934/6482 9445/6933/6481
f 9445/6933/6481 9459/6934/6482 9458/6936/6483 9446/6935/6483
f 9446/6935/6483 9458/6936/6483 9457/6938/6484 9447/6937/6484
f 9447/6937/6484 9457/6938/6484 9456/6940/6485 9448/6939/6485
f 9448/6939/6485 9456/6940/6485 9455/6942/6486 9449/6941/6486
f 9449/6941/6486 9455/6942/6486 9454/6944/6487 9450/6943/6487
f 9450/6943/6487 9454/6944/6487 9453/6946/6488 9451/6945/6488
f 9451/6945/6488 9453/6946/6488 9475/6948/6489 9452/6947/6489
f 9452/6947/6489 9475/6948/6489 9476/6950/6490 9429/6949/6490
f 9429/6949/6490 9476/6950/6490 9474/6952/6491 9430/6951/6491
f 9430/6951/6491 9474/6952/6491 9473/6954/6492 9431/6953/6492
f 9431/6953/6492 9473/6954/6492 9472/6956/6493 9432/6955/6493
f 9432/6955/6493 9472/6956/6493 9471/6911/6470 9433/6912/6470
f 9380/6960/6497 9500/6959/6496 9499/6958/6495 9357/6957/6494
f 9379/6962/6499 9498/6961/6498 9500/6959/6496 9380/6960/6497
f 9378/6964/6501 9497/6963/6500 9498/6961/6498 9379/6962/6499
f 9377/6966/6503 9496/6965/6502 9497/6963/6500 9378/6964/6501
f 9376/6968/6505 9495/6967/6504 9496/6965/6502 9377/6966/6503
f 9375/6970/6507 9494/6969/6506 9495/6967/6504 9376/6968/6505
f 9374/6972/6509 9493/6971/6508 9494/6969/6506 9375/6970/6507
f 9373/6974/6511 9492/6973/6510 9493/6971/6508 9374/6972/6509
f 9372/6976/6513 9491/6975/6512 9492/6973/6510 9373/6974/6511
f 9371/6978/6515 9490/6977/6514 9491/6975/6512 9372/6976/6513
f 9370/6980/6517 9489/6979/6516 9490/6977/6514 9371/6978/6515
f 9369/6982/6519 9488/6981/6518 9489/6979/6516 9370/6980/6517
f 9368/6984/6521 9487/6983/6520 9488/6981/6518 9369/6982/6519
f 9367/6986/6523 9486/6985/6522 9487/6983/6520 9368/6984/6521
f 9366/6988/6525 9485/6987/6524 9486/6985/6522 9367/6986/6523
f 9365/6990/6527 9484/6989/6526 9485/6987/6524 9366/6988/6525
f 9364/6992/6529 9483/6991/6528 9484/6989/6526 9365/6990/6527
f 9363/6994/6531 9482/6993/6530 9483/6991/6528 9364/6992/6529
f 9362/6996/6533 9481/6995/6532 9482/6993/6530 9363/6994/6531
f 9361/6998/6535 9480/6997/6534 9481/6995/6532 9362/6996/6533
f 9360/7000/6537 9479/6999/6536 9480/6997/6534 9361/6998/6535
f 9359/7002/6539 9478/7001/6538 9479/6999/6536 9360/7000/6537
f 9358/7004/6541 9477/7003/6540 9478/7001/6538 9359/7002/6539
f 9357/6957/6494 9499/6958/6495 9477/7003/6540 9358/7004/6541
f 9426/7006/6490 9476/6950/6490 9475/6948/6489 9427/7005/6489
f 9425/7007/6491 9474/6952/6491 9476/6950/6490 9426/7006/6490
f 9424/7008/6492 9473/6954/6492 9474/6952/6491 9425/7007/6491
f 9423/7009/6493 9472/6956/6493 9473/6954/6492 9424/7008/6492
f 9422/7010/6470 9471/6911/6470 9472/6956/6493 9423/7009/6493
f 9421/7011/6469 9470/6910/6469 9471/6911/6470 9422/7010/6470
f 9420/7012/6471 9469/6914/6471 9470/6910/6469 9421/7011/6469
f 9419/7013/6472 9468/6916/6472 9469/6914/6471 9420/7012/6471
f 9418/7014/6473 9467/6918/6473 9468/6916/6472 9419/7013/6472
f 9417/7015/6474 9466/6920/6474 9467/6918/6473 9418/7014/6473
f 9416/7016/6475 9465/6922/6475 9466/6920/6474 9417/7015/6474
f 9415/7017/6476 9464/6924/6476 9465/6922/6475 9416/7016/6475
f 9414/7018/6477 9463/6926/6477 9464/6924/6476 9415/7017/6476
f 9413/7019/6478 9462/6928/6478 9463/6926/6477 9414/7018/6477
f 9412/7020/6479 9461/6930/6479 9462/6928/6478 9413/7019/6478
f 9411/7021/6480 9460/6932/6480 9461/6930/6479 9412/7020/6479
f 9410/7022/6482 9459/6934/6482 9460/6932/6480 9411/7021/6480
f 9409/7023/6483 9458/6936/6483 9459/6934/6482 9410/7022/6482
f 9408/7024/6484 9457/6938/6484 9458/6936/6483 9409/7023/6483
f 9407/7025/6485 9456/6940/6485 9457/6938/6484 9408/7024/6484
f 9406/7026/6486 9455/6942/6486 9456/6940/6485 9407/7025/6485
f 9405/7027/6487 9454/6944/6487 9455/6942/6486 9406/7026/6486
f 9428/7028/6488 9453/6946/6488 9454/6944/6487 9405/7027/6487
f 9427/7005/6489 9475/6948/6489 9453/6946/6488 9428/7028/6488
f 9452/6947/6489 9505/6904/6489 9506/6903/6488 9451/6945/6488
f 9451/6945/6488 9506/6903/6488 9507/6902/6487 9450/6943/6487
f 9450/6943/6487 9507/6902/6487 9508/6901/6486 9449/6941/6486
f 9449/6941/6486 9508/6901/6486 9509/6900/6485 9448/6939/6485
f 9448/6939/6485 9509/6900/6485 9510/6899/6484 9447/6937/6484
f 9447/6937/6484 9510/6899/6484 9511/6898/6483 9446/6935/6483
f 9446/6935/6483 9511/6898/6483 9512/6897/6481 9445/6933/6481
f 9445/6933/6481 9512/6897/6481 9513/6896/6480 9444/6931/6480
f 9444/6931/6480 9513/6896/6480 9514/6895/6479 9443/6929/6479
f 9443/6929/6479 9514/6895/6479 9515/6894/6478 9442/6927/6478
f 9442/6927/6478 9515/6894/6478 9516/6893/6477 9441/6925/6477
f 9441/6925/6477 9516/6893/6477 9517/6892/6476 9440/6923/6476
f 9440/6923/6476 9517/6892/6476 9518/6891/6475 9439/6921/6475
f 9439/6921/6475 9518/6891/6475 9519/6890/6474 9438/6919/6474
f 9438/6919/6474 9519/6890/6474 9520/6889/6473 9437/6917/6473
f 9437/6917/6473 9520/6889/6473 9521/6888/6472 9436/6915/6472
f 9436/6915/6472 9521/6888/6472 9522/6887/6471 9435/6913/6471
f 9435/6913/6471 9522/6887/6471 9525/6885/6469 9434/6909/6469
f 9434/6909/6469 9525/6885/6469 9524/6886/6542 9433/6912/6470
f 9433/6912/6470 9524/6886/6542 9501/6908/6493 9432/6955/6493
f 9432/6955/6493 9501/6908/6493 9502/6907/6492 9431/6953/6492
f 9431/6953/6492 9502/6907/6492 9503/6906/6491 9430/6951/6491
f 9430/6951/6491 9503/6906/6491 9504/6905/6490 9429/6949/6490
f 9429/6949/6490 9504/6905/6490 9505/6904/6489 9452/6947/6489
f 9403/7030/6489 9427/7005/6489 9428/7028/6488 9404/7029/6488
f 9402/7031/6490 9426/7006/6490 9427/7005/6489 9403/7030/6489
f 9401/7032/6491 9425/7007/6491 9426/7006/6490 9402/7031/6490
f 9400/7033/6492 9424/7008/6492 9425/7007/6491 9401/7032/6491
f 9399/7034/6493 9423/7009/6493 9424/7008/6492 9400/7033/6492
f 9398/7035/6470 9422/7010/6470 9423/7009/6493 9399/7034/6493
f 9397/7036/6469 9421/7011/6469 9422/7010/6470 9398/7035/6470
f 9396/7037/6471 9420/7012/6471 9421/7011/6469 9397/7036/6469
f 9395/7038/6472 9419/7013/6472 9420/7012/6471 9396/7037/6471
f 9394/7039/6473 9418/7014/6473 9419/7013/6472 9395/7038/6472
f 9393/7040/6474 9417/7015/6474 9418/7014/6473 9394/7039/6473
f 9392/7041/6475 9416/7016/6475 9417/7015/6474 9393/7040/6474
f 9391/7042/6476 9415/7017/6476 9416/7016/6475 9392/7041/6475
f 9390/7043/6477 9414/7018/6477 9415/7017/6476 9391/7042/6476
f 9389/7044/6478 9413/7019/6478 9414/7018/6477 9390/7043/6477
f 9388/7045/6479 9412/7020/6479 9413/7019/6478 9389/7044/6478
f 9387/7046/6480 9411/7021/6480 9412/7020/6479 9388/7045/6479
f 9386/7047/6482 9410/7022/6482 9411/7021/6480 9387/7046/6480
f 9385/7048/6483 9409/7023/6483 9410/7022/6482 9386/7047/6482
f 9384/7049/6484 9408/7024/6484 9409/7023/6483 9385/7048/6483
f 9383/7050/6485 9407/7025/6485 9408/7024/6484 9384/7049/6484
f 9382/7051/6486 9406/7026/6486 9407/7025/6485 9383/7050/6485
f 9381/7052/6487 9405/7027/6487 9406/7026/6486 9382/7051/6486
f 9404/7029/6488 9428/7028/6488 9405/7027/6487 9381/7052/6487
f 9404/7029/6488 9497/6963/6500 9496/6965/6502 9403/7030/6489
f 9403/7030/6489 9496/6965/6502 9495/6967/6504 9402/7031/6490
f 9402/7031/6490 9495/6967/6504 9494/6969/6506 9401/7032/6491
f 9401/7032/6491 9494/6969/6506 9493/6971/6508 9400/7033/6492
f 9400/7033/6492 9493/6971/6508 9492/6973/6510 9399/7034/6493
f 9399/7034/6493 9492/6973/6510 9491/6975/6512 9398/7035/6470
f 9398/7035/6470 9491/6975/6512 9490/6977/6514 9397/7036/6469
f 9397/7036/6469 9490/6977/6514 9489/6979/6516 9396/7037/6471
f 9396/7037/6471 9489/6979/6516 9488/6981/6518 9395/7038/6472
f 9395/7038/6472 9488/6981/6518 9487/6983/6520 9394/7039/6473
f 9394/7039/6473 9487/6983/6520 9486/6985/6522 9393/7040/6474
f 9393/7040/6474 9486/6985/6522 9485/6987/6524 9392/7041/6475
f 9392/7041/6475 9485/6987/6524 9484/6989/6526 9391/7042/6476
f 9391/7042/6476 9484/6989/6526 9483/6991/6528 9390/7043/6477
f 9390/7043/6477 9483/6991/6528 9482/6993/6530 9389/7044/6478
f 9389/7044/6478 9482/6993/6530 9481/6995/6532 9388/7045/6479
f 9388/7045/6479 9481/6995/6532 9480/6997/6534 9387/7046/6480
f 9387/7046/6480 9480/6997/6534 9479/6999/6536 9386/7047/6482
f 9386/7047/6482 9479/6999/6536 9478/7001/6538 9385/7048/6483
f 9385/7048/6483 9478/7001/6538 9477/7003/6540 9384/7049/6484
f 9384/7049/6484 9477/7003/6540 9499/6958/6495 9383/7050/6485
f 9383/7050/6485 9499/6958/6495 9500/6959/6496 9382/7051/6486
f 9382/7051/6486 9500/6959/6496 9498/6961/6498 9381/7052/6487
f 9381/7052/6487 9498/6961/6498 9497/6963/6500 9404/7029/6488
f 9380/6960/6497 9533/6877/6452 9532/6878/6454 9379/6962/6499
f 9379/6962/6499 9532/6878/6454 9531/6879/6456 9378/6964/6501
f 9378/6964/6501 9531/6879/6456 9530/6880/6458 9377/6966/6503
f 9377/6966/6503 9530/6880/6458 9529/6881/6460 9376/6968/6505
f 9376/6968/6505 9529/6881/6460 9528/6882/6462 9375/6970/6507
f 9375/6970/6507 9528/6882/6462 9527/6883/6464 9374/6972/6509
f 9374/6972/6509 9527/6883/6464 9526/6884/6466 9373/6974/6511
f 9373/6974/6511 9526/6884/6466 9549/6861/6421 9372/6976/6513
f 9372/6976/6513 9549/6861/6421 9548/6862/6422 9371/6978/6515
f 9371/6978/6515 9548/6862/6422 9547/6863/6424 9370/6980/6517
f 9370/6980/6517 9547/6863/6424 9546/6864/6426 9369/6982/6519
f 9369/6982/6519 9546/6864/6426 9545/6865/6428 9368/6984/6521
f 9368/6984/6521 9545/6865/6428 9544/6866/6430 9367/6986/6523
f 9367/6986/6523 9544/6866/6430 9543/6867/6432 9366/6988/6525
f 9366/6988/6525 9543/6867/6432 9542/6868/6434 9365/6990/6527
f 9365/6990/6527 9542/6868/6434 9541/6869/6436 9364/6992/6529
f 9364/6992/6529 9541/6869/6436 9540/6870/6438 9363/6994/6531
f 9363/6994/6531 9540/6870/6438 9539/6871/6440 9362/6996/6533
f 9362/6996/6533 9539/6871/6440 9538/6872/6442 9361/6998/6535
f 9361/6998/6535 9538/6872/6442 9537/6873/6444 9360/7000/6537
f 9360/7000/6537 9537/6873/6444 9536/6874/6446 9359/7002/6539
f 9359/7002/6539 9536/6874/6446 9535/6875/6448 9358/7004/6541
f 9358/7004/6541 9535/6875/6448 9534/6876/6450 9357/6957/6494
f 9357/6957/6494 9534/6876/6450 9533/6877/6452 9380/6960/6497

usemtl default

g Blades
v 4.543127 2.046587 -0.153899
v 4.547815 1.977988 -0.245219
v 4.551777 1.908598 -0.342455
v 4.554256 1.837633 -0.451528
v 4.612447 2.043797 -0.150937
v 4.600740 1.975857 -0.242957
v 4.591891 1.906983 -0.340741
v 4.588745 1.836244 -0.450054
v 4.590269 1.768458 -0.565725
v 4.595447 1.708448 -0.682587
v 4.602705 1.650735 -0.805931
v 4.610479 1.589840 -0.941045
v 4.539786 1.801984 -0.431616
v 4.561194 1.801122 -0.430703
v 4.543489 1.789757 -0.424616
v 4.639494 1.964556 -0.521745
v 4.644212 1.901636 -0.640109
v 4.648192 1.838687 -0.755330
v 4.544875 1.720126 -0.539244
v 4.567875 1.672769 -0.662920
v 4.550845 1.661190 -0.656699
v 4.650966 1.770880 -0.873044
v 4.652098 1.693385 -0.998887
v 4.560478 1.607189 -0.782098
v 4.587110 1.561533 -0.925473
v 4.572888 1.552357 -0.920557
v 4.650933 1.624926 -1.100790
v 4.646782 1.584225 -1.146670
v 4.641036 1.561040 -1.158380
v 4.635053 1.545135 -1.157720
v 4.586528 1.511788 -1.037960
v 4.599885 1.500576 -1.100210
v 4.545997 1.864979 -0.317856
v 4.539744 1.950454 -0.229779
v 4.559033 2.016636 -0.136614
v 4.574965 1.949036 -0.228276
v 4.551707 1.940686 -0.224007
v 4.620793 2.122549 -0.195390
v 4.633962 2.023619 -0.405990
v 4.627594 2.075005 -0.298600
v 4.557301 1.769785 -0.567133
v 4.547998 1.673567 -0.663768
v 4.562989 1.709755 -0.683974
v 4.571298 1.651999 -0.807272
v 4.570395 1.562206 -0.926187
v 4.582235 1.590976 -0.942252
v 4.593808 1.542789 -1.055380
v 4.597372 1.506460 -1.103600
v 4.604045 1.523537 -1.113140
v 4.576904 1.883210 -0.476900
v 4.618205 1.955158 -0.516844
v 4.597784 1.925213 -0.500284
v 4.585985 1.756032 -0.709736
v 4.627585 1.829102 -0.750309
v 4.602500 1.860721 -0.617757
v 4.607193 1.798682 -0.733480
v 4.600516 1.627765 -0.962732
v 4.634128 1.685831 -0.994965
v 4.612073 1.734025 -0.852936
v 4.617376 1.661670 -0.981609
v 4.614886 1.545356 -1.125290
v 4.628430 1.550382 -1.152590
v 4.635148 1.579783 -1.144390
v 4.622012 1.599519 -1.086970
v 4.624887 1.565467 -1.136480
v 4.565237 2.013030 -0.264727
v 4.591286 1.988099 -0.386714
v 4.600549 2.068208 -0.295287
v 4.569534 2.099723 -0.183479
v 4.581295 2.045326 -0.282707
v 4.628505 1.532333 -1.150600
v 4.613070 1.519876 -1.135610
v 4.611788 1.506778 -1.128210
v 4.621036 1.518455 -1.142890
v 4.618099 1.881550 -0.475138
v 4.650783 1.953847 -0.515452
v 4.641212 1.923464 -0.498427
v 4.625148 1.754456 -0.708062
v 4.644406 1.859033 -0.615965
v 4.658632 1.827853 -0.748982
v 4.648589 1.797018 -0.731711
v 4.635466 1.626359 -0.961238
v 4.652417 1.732401 -0.851211
v 4.662011 1.684709 -0.993773
v 4.654558 1.660174 -0.980019
v 4.653950 1.598232 -1.085600
v 4.653634 1.579039 -1.143600
v 4.642763 1.549806 -1.151980
v 4.649538 1.564474 -1.135430
v 4.624867 2.010630 -0.262178
v 4.647791 2.096574 -0.180134
v 4.646948 2.066340 -0.293304
v 4.640347 1.986125 -0.384617
v 4.643158 2.042836 -0.280062
v 4.638246 1.544417 -1.124290
v 4.625361 1.519380 -1.135080
v 4.609342 1.505976 -1.103080
v 4.617749 1.541825 -1.054360
v 4.623481 1.522754 -1.112310
v 4.634926 1.535193 -1.143850
v 4.621105 1.535749 -1.144440
v 4.608484 1.572310 -1.071820
v 4.592516 1.694685 -0.831035
v 4.580828 1.817108 -0.593477
v 4.572338 1.949969 -0.365487
v 4.556867 2.074238 -0.169292
v 4.556314 2.094490 -0.135297
v 4.634570 2.091340 -0.131951
v 4.632892 2.071179 -0.166043
v 4.619158 1.948084 -0.363485
v 4.620492 1.815511 -0.591781
v 4.638430 1.571105 -1.070540
v 4.630619 1.693150 -0.829406
v 4.623311 1.891829 -0.634969
v 4.541974 1.732782 -0.546472
v 4.631155 1.762072 -0.868448
v 4.557569 1.618618 -0.788631
v 4.635716 1.618896 -1.097670
v 4.634635 1.563333 -1.153390
v 4.607102 1.509987 -1.123710
v 4.584359 1.519699 -1.042490
v 4.539640 1.876197 -0.324338
v 4.611035 2.015234 -0.401696
v 4.539958 2.024731 -0.141580
v 4.527742 2.037020 -0.103305
v 4.580565 2.143293 -0.162465
v 4.588415 2.117630 -0.193249
v 4.562231 1.731967 -0.545608
v 4.654737 1.890564 -0.633625
v 4.647826 2.013752 -0.400123
v 4.565262 1.875165 -0.323244
v 4.661412 1.760854 -0.867154
v 4.576655 1.617850 -0.787816
v 4.598311 1.519137 -1.041890
v 4.659676 1.617932 -1.096650
v 4.587479 2.022819 -0.139550
v 4.647104 2.115268 -0.190740
v 4.646485 1.562856 -1.152890
v 4.615729 1.509639 -1.123340
v 4.658833 2.140142 -0.159119
v 4.606009 2.033871 -0.099959
v 4.542457 2.084970 0.187782
v 4.546728 2.040288 0.292913
v 4.550331 1.990858 0.401674
v 4.552600 1.931927 0.517696
v 4.611627 2.090743 0.189765
v 4.599539 2.044695 0.294427
v 4.590369 1.994199 0.402822
v 4.587025 1.934800 0.518684
v 4.588522 1.868543 0.635238
v 4.593893 1.797467 0.745709
v 4.601502 1.719684 0.857464
v 4.609721 1.633313 0.977867
v 4.536913 1.966599 0.538391
v 4.558265 1.968380 0.539004
v 4.540179 1.978864 0.545533
v 4.642192 1.809954 0.444191
v 4.647051 1.739019 0.557927
v 4.651112 1.670799 0.670105
v 4.541484 1.914429 0.663162
v 4.565103 1.831598 0.766354
v 4.547683 1.842324 0.773011
v 4.653899 1.602817 0.787717
v 4.654905 1.532592 0.917758
v 4.557794 1.760969 0.882616
v 4.585385 1.660326 0.994239
v 4.570845 1.668794 0.999511
v 4.653478 1.478524 1.027970
v 4.648968 1.459015 1.086090
v 4.642795 1.460314 1.111930
v 4.636388 1.468667 1.125290
v 4.585202 1.587754 1.093550
v 4.599200 1.539806 1.134580
v 4.543040 2.033797 0.427058
v 4.537697 2.067199 0.308912
v 4.557310 2.115315 0.205314
v 4.572851 2.070132 0.309920
v 4.549321 2.077390 0.314665
v 4.622704 2.013129 0.143926
v 4.636459 1.880537 0.335088
v 4.629817 1.947689 0.236802
v 4.555624 1.865799 0.634294
v 4.545269 1.829944 0.765786
v 4.561495 1.794763 0.744780
v 4.570162 1.717070 0.856566
v 4.568707 1.658934 0.993760
v 4.581537 1.630961 0.977061
v 4.593553 1.557376 1.075530
v 4.596894 1.533870 1.131140
v 4.604155 1.517252 1.121230
v 4.576824 1.887783 0.491261
v 4.620593 1.818335 0.449557
v 4.599147 1.847099 0.466898
v 4.586091 1.749941 0.717938
v 4.630198 1.679396 0.675583
v 4.603949 1.777721 0.581549
v 4.608756 1.708630 0.693200
v 4.601082 1.595329 0.955722
v 4.636675 1.539290 0.922066
v 4.613756 1.637622 0.808988
v 4.619098 1.562487 0.936056
v 4.615745 1.496117 1.108570
v 4.629818 1.470319 1.118080
v 4.637178 1.462908 1.088619
v 4.623697 1.502426 1.042620
v 4.626437 1.476638 1.096910
v 4.565353 2.006346 0.272587
v 4.592581 1.913854 0.355562
v 4.602555 1.953245 0.240623
v 4.570690 2.033503 0.156961
v 4.582511 1.975065 0.253854
v 4.629390 1.481058 1.132710
v 4.613420 1.499860 1.135770
v 4.611684 1.512774 1.143390
v 4.621455 1.494477 1.140760
v 4.617930 1.891216 0.492439
v 4.653100 1.821049 0.450489
v 4.642481 1.850717 0.468139
v 4.625170 1.753203 0.719058
v 4.645764 1.781211 0.582748
v 4.661178 1.681982 0.676471
v 4.650072 1.712078 0.694383
v 4.635956 1.598239 0.956721
v 4.654003 1.640982 0.810142
v 4.664508 1.541615 0.922863
v 4.656209 1.565584 0.937119
v 4.655575 1.505089 1.043540
v 4.655634 1.464449 1.089150
v 4.644130 1.471513 1.118490
v 4.651035 1.478692 1.097610
v 4.624856 2.011313 0.274292
v 4.648778 2.040022 0.159198
v 4.648855 1.957110 0.241949
v 4.641538 1.917941 0.356965
v 4.644241 1.980218 0.255623
v 4.639045 1.498062 1.109240
v 4.625684 1.500885 1.136120
v 4.608838 1.534870 1.131490
v 4.617442 1.559370 1.076210
v 4.623549 1.518872 1.121780
v 4.635791 1.485642 1.126960
v 4.622000 1.484491 1.126560
v 4.609244 1.528781 1.058400
v 4.592847 1.675725 0.831806
v 4.580778 1.819964 0.606846
v 4.572324 1.950786 0.377678
v 4.557147 2.058187 0.171743
v 4.556610 2.077492 0.137201
v 4.634698 2.084012 0.139439
v 4.633008 2.064519 0.173917
v 4.619042 1.954686 0.379017
v 4.620357 1.823268 0.607980
v 4.639125 1.531275 1.059260
v 4.630868 1.678900 0.832897
v 4.625824 1.747822 0.563533
v 4.539024 1.901772 0.655773
v 4.633798 1.610678 0.792747
v 4.555284 1.749526 0.875943
v 4.638063 1.483835 1.031400
v 4.636381 1.463316 1.107360
v 4.607016 1.514943 1.138300
v 4.583310 1.579827 1.088930
v 4.537088 2.022413 0.420489
v 4.613258 1.887844 0.339856
v 4.538532 2.106472 0.200499
v 4.526064 2.133155 0.170536
v 4.582539 2.030223 0.108894
v 4.590178 2.016593 0.146625
v 4.559237 1.903458 0.656353
v 4.657183 1.750440 0.564432
v 4.649971 1.890909 0.340908
v 4.562654 2.024547 0.421222
v 4.663989 1.613198 0.793612
v 4.574329 1.751116 0.876489
v 4.597231 1.580989 1.089330
v 4.661972 1.485831 1.032090
v 4.585950 2.110428 0.201859
v 4.648742 2.021482 0.148304
v 4.648206 1.464303 1.107700
v 4.615624 1.515662 1.138540
v 4.660627 2.036743 0.111132
v 4.604152 2.139674 0.172773
v 4.537619 2.361637 -0.016304
v 4.539128 2.475101 -0.030116
v 4.539793 2.594063 -0.041641
v 4.538764 2.724023 -0.048590
v 4.606867 2.362281 -0.021249
v 4.592007 2.475593 -0.033891
v 4.579882 2.594437 -0.044502
v 4.573234 2.724345 -0.051050
v 4.571234 2.858404 -0.051934
v 4.573062 2.989707 -0.045543
v 4.576942 3.125530 -0.033955
v 4.581087 3.273150 -0.019244
v 4.523678 2.724212 -0.089196
v 4.545058 2.724412 -0.090722
v 4.527166 2.724355 -0.103338
v 4.626234 2.723652 0.095133
v 4.627514 2.857697 0.099760
v 4.628093 2.989016 0.102804
v 4.524996 2.858431 -0.106339
v 4.544867 2.989780 -0.085855
v 4.527635 2.989730 -0.098733
v 4.627321 3.124888 0.102906
v 4.624523 3.272599 0.098708
v 4.533966 3.125540 -0.082939
v 4.557222 3.273194 -0.051187
v 4.542831 3.273143 -0.061375
v 4.620016 3.394999 0.090397
v 4.614119 3.454955 0.078160
v 4.607581 3.476524 0.064022
v 4.601204 3.483744 0.050015
v 4.553629 3.395430 -0.038006
v 4.565755 3.455281 -0.016794
v 4.533246 2.594402 -0.091623
v 4.530574 2.475275 -0.061554
v 4.552993 2.362048 -0.051121
v 4.565763 2.475604 -0.064066
v 4.542363 2.475470 -0.073079
v 4.616610 2.361650 0.069042
v 4.624000 2.593772 0.088480
v 4.620603 2.474947 0.079376
v 4.538293 2.858099 -0.049582
v 4.525017 2.989595 -0.084438
v 4.540633 2.989405 -0.043228
v 4.545572 3.125238 -0.031715
v 4.540512 3.273032 -0.049994
v 4.552856 3.272888 -0.017229
v 4.561463 3.395216 -0.002564
v 4.563336 3.455208 -0.009968
v 4.570310 3.455110 0.009489
v 4.562221 2.723819 0.003218
v 4.604783 2.723546 0.084866
v 4.583837 2.723631 0.050965
v 4.564449 2.989198 0.009377
v 4.607331 2.988917 0.092305
v 4.585088 2.857690 0.053787
v 4.586396 2.989007 0.057859
v 4.571793 3.272718 0.024589
v 4.606412 3.272502 0.090478
v 4.587775 3.124870 0.061526
v 4.589238 3.272573 0.063132
v 4.581543 3.455016 0.034292
v 4.594790 3.476501 0.052091
v 4.602398 3.454890 0.073348
v 4.590652 3.394966 0.061924
v 4.591886 3.454926 0.057152
v 4.557164 2.474944 0.009719
v 4.580705 2.593707 0.048731
v 4.593442 2.474766 0.072243
v 4.564957 2.361398 0.044097
v 4.573779 2.474799 0.046431
v 4.594422 3.483795 0.035467
v 4.578905 3.476633 0.017417
v 4.577383 3.476737 0.002397
v 4.586710 3.483851 0.019705
v 4.603381 2.724201 0.000278
v 4.637332 2.723847 0.082542
v 4.627227 2.724033 0.047866
v 4.603580 2.989561 0.006583
v 4.626958 2.858079 0.050797
v 4.638350 2.989206 0.090091
v 4.627756 2.989390 0.054907
v 4.606712 3.273048 0.022096
v 4.628085 3.125243 0.058648
v 4.634281 3.272759 0.088488
v 4.626388 3.272911 0.060479
v 4.622572 3.395263 0.059644
v 4.620878 3.455063 0.072028
v 4.609110 3.476631 0.051069
v 4.616526 3.455157 0.055393
v 4.616744 2.475496 0.005465
v 4.643146 2.362123 0.038514
v 4.639802 2.475197 0.068933
v 4.629724 2.594162 0.045231
v 4.635588 2.475372 0.042018
v 4.604873 3.455233 0.032626
v 4.591175 3.476748 0.016539
v 4.575306 3.455317 -0.010825
v 4.585373 3.395444 -0.004272
v 4.589739 3.455299 0.008101
v 4.601027 3.476689 0.034472
v 4.587217 3.476568 0.035458
v 4.576648 3.395092 0.030995
v 4.567529 3.125046 0.016807
v 4.562642 2.857885 0.004210
v 4.561089 2.593879 0.005388
v 4.551842 2.361512 0.015128
v 4.552333 2.321946 0.015675
v 4.630522 2.322670 0.010091
v 4.627801 2.362217 0.009705
v 4.607868 2.594312 0.002047
v 4.602281 2.858253 0.001380
v 4.606567 3.395364 0.028859
v 4.605608 3.125399 0.014088
v 4.606443 2.857599 0.089014
v 4.522318 2.858292 -0.091722
v 4.607360 3.124790 0.093280
v 4.531257 3.125413 -0.069732
v 4.604695 3.394921 0.083848
v 4.601318 3.470894 0.063613
v 4.572860 3.471117 0.002997
v 4.551610 3.395344 -0.028861
v 4.527097 2.594245 -0.078572
v 4.600929 2.593642 0.079419
v 4.534065 2.361804 -0.041340
v 4.522754 2.322204 -0.049653
v 4.577441 2.321726 0.071149
v 4.584149 2.361406 0.064202
v 4.542558 2.858481 -0.093166
v 4.637842 2.857890 0.086772
v 4.637688 2.593983 0.076793
v 4.552697 2.594484 -0.080399
v 4.637589 3.125070 0.091121
v 4.550327 3.125591 -0.071093
v 4.565549 3.395468 -0.029856
v 4.628635 3.395139 0.082140
v 4.581544 2.362247 -0.044730
v 4.642788 2.361949 0.060015
v 4.613159 3.471000 0.062768
v 4.581470 3.471197 0.002381
v 4.655630 2.322451 0.065566
v 4.600944 2.322928 -0.055236

vt 0.454001 0.259866
vt 0.454252 0.263859
vt 0.452617 0.263881
vt 0.451792 0.259896
vt 0.450086 0.259921
vt 0.451355 0.263899
vt 0.452236 0.264950
vt 0.453179 0.265309
vt 0.454375 0.265294
vt 0.452213 0.206469
vt 0.452441 0.198539
vt 0.454878 0.198509
vt 0.455092 0.206434
vt 0.457196 0.206413
vt 0.456672 0.198492
vt 0.456078 0.190940
vt 0.454644 0.190951
vt 0.452724 0.190976
vt 0.455770 0.263840
vt 0.455481 0.265280
vt 0.456261 0.264900
vt 0.456879 0.263829
vt 0.457553 0.259826
vt 0.456053 0.259841
vt 0.453550 0.251713
vt 0.456109 0.251681
vt 0.457976 0.251662
vt 0.458152 0.241813
vt 0.455987 0.241836
vt 0.453016 0.241872
vt 0.452516 0.232820
vt 0.455737 0.232781
vt 0.458083 0.232756
vt 0.457862 0.224004
vt 0.455463 0.224029
vt 0.452169 0.224069
vt 0.452095 0.215133
vt 0.455268 0.215094
vt 0.457580 0.215070
vt 0.454441 0.265775
vt 0.453391 0.265788
vt 0.452237 0.265324
vt 0.452277 0.264955
vt 0.453238 0.265316
vt 0.454441 0.265302
vt 0.453085 0.191017
vt 0.452725 0.198572
vt 0.455172 0.198543
vt 0.455017 0.190994
vt 0.456357 0.190972
vt 0.456893 0.198518
vt 0.457371 0.206433
vt 0.455326 0.206461
vt 0.452436 0.206495
vt 0.454143 0.259883
vt 0.454363 0.263872
vt 0.455887 0.263854
vt 0.456205 0.259858
vt 0.457667 0.259839
vt 0.456967 0.263839
vt 0.456318 0.264907
vt 0.455550 0.265288
vt 0.453197 0.241893
vt 0.453716 0.251732
vt 0.456286 0.251702
vt 0.456179 0.241858
vt 0.458295 0.241830
vt 0.458109 0.251677
vt 0.452358 0.224091
vt 0.452702 0.232842
vt 0.455934 0.232803
vt 0.455663 0.224052
vt 0.458011 0.224021
vt 0.458230 0.232773
vt 0.452291 0.215155
vt 0.455474 0.215117
vt 0.457734 0.215087
vt 0.452709 0.263891
vt 0.451412 0.263906
vt 0.450153 0.259929
vt 0.451906 0.259909
vt 0.450928 0.251765
vt 0.448744 0.251789
vt 0.447428 0.241960
vt 0.449962 0.241932
vt 0.449195 0.232883
vt 0.446448 0.232914
vt 0.445962 0.224165
vt 0.448771 0.224133
vt 0.456680 0.190951
vt 0.457369 0.198498
vt 0.457976 0.206415
vt 0.446717 0.206545
vt 0.445969 0.206562
vt 0.447205 0.198624
vt 0.447806 0.198606
vt 0.449095 0.191031
vt 0.448669 0.191051
vt 0.449321 0.191057
vt 0.447973 0.198625
vt 0.446839 0.206559
vt 0.450957 0.263908
vt 0.449543 0.259932
vt 0.455411 0.265764
vt 0.456345 0.265275
vt 0.458103 0.259826
vt 0.457287 0.263830
vt 0.447985 0.251794
vt 0.448664 0.251780
vt 0.447337 0.241950
vt 0.446548 0.241965
vt 0.458937 0.241813
vt 0.458657 0.251662
vt 0.445495 0.232920
vt 0.446353 0.232903
vt 0.445866 0.224154
vt 0.444988 0.224171
vt 0.458727 0.224003
vt 0.458930 0.232755
vt 0.458419 0.215069
vt 0.445188 0.215232
vt 0.446029 0.215214
vt 0.446130 0.215226
vt 0.450794 0.251750
vt 0.449813 0.241915
vt 0.449041 0.232866
vt 0.448615 0.224115
vt 0.448673 0.215177
vt 0.449110 0.206510
vt 0.449817 0.198574
vt 0.450660 0.191004
vt 0.448838 0.215196
vt 0.449301 0.206532
vt 0.450069 0.198603
vt 0.450990 0.191042
vt 0.522694 0.135575
vt 0.526026 0.133361
vt 0.526862 0.134766
vt 0.523824 0.137473
vt 0.524699 0.138937
vt 0.527509 0.135850
vt 0.527979 0.134561
vt 0.527818 0.133565
vt 0.527207 0.132537
vt 0.477345 0.163821
vt 0.470363 0.167589
vt 0.469118 0.165494
vt 0.475874 0.161346
vt 0.474804 0.159534
vt 0.468207 0.163948
vt 0.461964 0.168239
vt 0.462690 0.169475
vt 0.463671 0.171126
vt 0.525251 0.132056
vt 0.526643 0.131585
vt 0.525923 0.131100
vt 0.524687 0.131101
vt 0.520883 0.132519
vt 0.521646 0.133810
vt 0.515858 0.140042
vt 0.514551 0.137842
vt 0.513601 0.136234
vt 0.504984 0.141006
vt 0.506086 0.142870
vt 0.507603 0.145424
vt 0.500014 0.150384
vt 0.498369 0.147614
vt 0.497175 0.145595
vt 0.489706 0.150162
vt 0.490927 0.152227
vt 0.492609 0.155060
vt 0.484906 0.159592
vt 0.483286 0.156864
vt 0.482109 0.154874
vt 0.527591 0.132239
vt 0.528127 0.133142
vt 0.528303 0.134373
vt 0.527963 0.134523
vt 0.527795 0.133511
vt 0.527181 0.132476
vt 0.463526 0.170792
vt 0.470249 0.167327
vt 0.469000 0.165222
vt 0.462541 0.169131
vt 0.461852 0.167981
vt 0.468118 0.163744
vt 0.474734 0.159372
vt 0.475781 0.161130
vt 0.477255 0.163616
vt 0.522637 0.135443
vt 0.525981 0.133258
vt 0.525204 0.131948
vt 0.521585 0.133670
vt 0.520837 0.132414
vt 0.524651 0.131020
vt 0.525901 0.131048
vt 0.526615 0.131522
vt 0.507531 0.145257
vt 0.515791 0.139889
vt 0.514480 0.137679
vt 0.506009 0.142693
vt 0.504927 0.140874
vt 0.513548 0.136112
vt 0.492533 0.154886
vt 0.499939 0.150212
vt 0.498290 0.147432
vt 0.490847 0.152043
vt 0.489646 0.150024
vt 0.497116 0.145458
vt 0.484827 0.159411
vt 0.483203 0.156673
vt 0.482047 0.154731
vt 0.526825 0.134681
vt 0.527486 0.135797
vt 0.524672 0.138876
vt 0.523779 0.137367
vt 0.517214 0.142286
vt 0.518327 0.144166
vt 0.510473 0.150220
vt 0.509181 0.148039
vt 0.501729 0.153228
vt 0.503129 0.155592
vt 0.495795 0.160387
vt 0.494363 0.157970
vt 0.461672 0.167713
vt 0.467864 0.163342
vt 0.474416 0.158858
vt 0.480158 0.168543
vt 0.480547 0.169183
vt 0.473054 0.172081
vt 0.472738 0.171570
vt 0.465534 0.174241
vt 0.465764 0.174600
vt 0.465443 0.174032
vt 0.472671 0.171416
vt 0.480109 0.168431
vt 0.527715 0.136190
vt 0.524980 0.139402
vt 0.527096 0.131405
vt 0.526205 0.130840
vt 0.520608 0.132042
vt 0.524483 0.130747
vt 0.518711 0.144821
vt 0.518359 0.144239
vt 0.510509 0.150304
vt 0.510918 0.150980
vt 0.504591 0.140326
vt 0.513261 0.135644
vt 0.503611 0.156415
vt 0.503167 0.155679
vt 0.495834 0.160476
vt 0.496288 0.161228
vt 0.489272 0.149413
vt 0.496750 0.144861
vt 0.481689 0.154147
vt 0.488446 0.165525
vt 0.488010 0.164805
vt 0.487969 0.164711
vt 0.517268 0.142410
vt 0.509241 0.148177
vt 0.501791 0.153371
vt 0.494426 0.158115
vt 0.486656 0.162533
vt 0.478932 0.166488
vt 0.471705 0.169844
vt 0.464728 0.172899
vt 0.486590 0.162381
vt 0.478855 0.166312
vt 0.471604 0.169611
vt 0.464596 0.172594
vt 0.380708 0.138230
vt 0.377124 0.136452
vt 0.377923 0.135025
vt 0.381786 0.136303
vt 0.382618 0.134813
vt 0.378538 0.133923
vt 0.377188 0.134160
vt 0.376405 0.134798
vt 0.375820 0.135841
vt 0.427844 0.163381
vt 0.434598 0.167543
vt 0.433406 0.169669
vt 0.426436 0.165892
vt 0.425402 0.167725
vt 0.432523 0.171231
vt 0.439361 0.174492
vt 0.440068 0.173245
vt 0.441007 0.171570
vt 0.376382 0.137776
vt 0.375278 0.136806
vt 0.375218 0.137671
vt 0.375837 0.138742
vt 0.378967 0.141327
vt 0.379704 0.140021
vt 0.387994 0.141917
vt 0.386742 0.144149
vt 0.385825 0.145775
vt 0.394267 0.150852
vt 0.395330 0.148966
vt 0.396783 0.146375
vt 0.404873 0.150467
vt 0.403296 0.153277
vt 0.402145 0.155321
vt 0.409835 0.159505
vt 0.411013 0.157416
vt 0.412625 0.154543
vt 0.420401 0.158947
vt 0.418848 0.161714
vt 0.417713 0.163728
vt 0.375370 0.135658
vt 0.375884 0.134741
vt 0.376863 0.133974
vt 0.377163 0.134193
vt 0.376370 0.134845
vt 0.375781 0.135894
vt 0.440791 0.171862
vt 0.434428 0.167773
vt 0.433230 0.169907
vt 0.439845 0.173546
vt 0.439194 0.174718
vt 0.432391 0.171410
vt 0.425297 0.167866
vt 0.426296 0.166081
vt 0.427711 0.163561
vt 0.380622 0.138346
vt 0.377058 0.136541
vt 0.376312 0.137870
vt 0.379612 0.140144
vt 0.378899 0.141419
vt 0.375784 0.138813
vt 0.375184 0.137717
vt 0.375238 0.136861
vt 0.396675 0.146521
vt 0.387895 0.142051
vt 0.386636 0.144292
vt 0.395214 0.149121
vt 0.394180 0.150968
vt 0.385746 0.145883
vt 0.412512 0.154695
vt 0.404761 0.150618
vt 0.403178 0.153436
vt 0.410893 0.157577
vt 0.409746 0.159626
vt 0.402056 0.155440
vt 0.420284 0.159106
vt 0.418725 0.161881
vt 0.417621 0.163854
vt 0.377868 0.135100
vt 0.378504 0.133969
vt 0.382578 0.134867
vt 0.381718 0.136395
vt 0.389260 0.139620
vt 0.390331 0.137716
vt 0.399501 0.141492
vt 0.398259 0.143701
vt 0.406479 0.147560
vt 0.407826 0.145165
vt 0.415645 0.149119
vt 0.414268 0.151568
vt 0.439051 0.175008
vt 0.432170 0.171831
vt 0.425011 0.168399
vt 0.430527 0.158583
vt 0.430886 0.157927
vt 0.437143 0.162966
vt 0.436858 0.163496
vt 0.442773 0.168399
vt 0.442969 0.168020
vt 0.442638 0.168582
vt 0.436758 0.163631
vt 0.430454 0.158682
vt 0.378730 0.133574
vt 0.382880 0.134337
vt 0.374896 0.136503
vt 0.374852 0.137557
vt 0.378691 0.141803
vt 0.375632 0.139095
vt 0.390706 0.137057
vt 0.390379 0.137652
vt 0.399556 0.141418
vt 0.399937 0.140726
vt 0.393874 0.151532
vt 0.385484 0.146365
vt 0.408297 0.144337
vt 0.407882 0.145089
vt 0.415703 0.149042
vt 0.416127 0.148273
vt 0.409403 0.160256
vt 0.401722 0.156055
vt 0.417294 0.164455
vt 0.423769 0.152915
vt 0.423363 0.153652
vt 0.423302 0.153735
vt 0.389341 0.139512
vt 0.398348 0.143580
vt 0.406571 0.147435
vt 0.414362 0.151441
vt 0.422073 0.155962
vt 0.429361 0.160673
vt 0.435880 0.165254
vt 0.442014 0.169769
vt 0.421975 0.156094
vt 0.429246 0.160827
vt 0.435729 0.165457
vt 0.441817 0.170035

vn 0.867552 0.041747 -0.495592
vn 0.867015 0.120421 -0.483512
vn 0.818624 0.119347 -0.561793
vn 0.820237 0.050263 -0.569811
vn 0.683404 0.100797 -0.723048
vn 0.666845 0.217889 -0.712631
vn 0.638587 0.394713 -0.660612
vn 0.751305 0.398783 -0.525845
vn 0.797054 0.437113 -0.416698
vn 0.874062 0.036327 -0.484455
vn 0.866450 0.056454 -0.496062
vn 0.951010 0.055563 -0.304127
vn 0.937964 0.035679 -0.344892
vn 0.971907 0.030722 -0.233353
vn 0.988845 0.046596 -0.141471
vn 0.995590 0.050680 -0.078943
vn 0.959116 0.062163 -0.276104
vn 0.861651 0.063275 -0.503541
vn 0.924333 0.161325 -0.345808
vn 0.832216 0.503156 -0.232916
vn 0.842106 0.535079 -0.067441
vn 0.952624 0.190319 -0.237246
vn 0.963749 0.054889 -0.261103
vn 0.931066 0.047961 -0.361686
vn 0.870847 0.025031 -0.490917
vn 0.930670 0.021944 -0.365201
vn 0.962259 0.022489 -0.271206
vn 0.959782 0.011029 -0.280530
vn 0.930040 0.012493 -0.367245
vn 0.875650 0.017378 -0.482633
vn 0.878597 0.012138 -0.477409
vn 0.929493 0.007394 -0.368765
vn 0.957967 0.004967 -0.286837
vn 0.879341 0.010599 -0.476075
vn 0.878033 0.016935 -0.478300
vn 0.931752 0.015729 -0.362755
vn 0.961670 0.012916 -0.273906
vn 0.674961 0.657458 -0.334929
vn 0.646318 0.598966 -0.472771
vn 0.552632 0.488544 -0.675221
vn -0.833389 0.549896 0.055463
vn -0.746780 0.660808 -0.075191
vn -0.708294 0.676015 0.203282
vn -0.832339 0.472367 0.289968
vn -0.809114 0.453201 0.374091
vn -0.675376 0.665368 0.318045
vn -0.909157 0.062264 0.411773
vn -0.909617 0.053652 0.411970
vn -0.856001 0.041618 0.515297
vn -0.844239 0.047301 0.533876
vn -0.508386 -0.019300 0.860913
vn -0.551144 -0.016143 0.834254
vn -0.621215 -0.013445 0.783525
vn -0.873417 0.023383 0.486411
vn -0.910541 0.029941 0.412332
vn -0.910464 0.033081 0.412262
vn -0.902499 0.131773 0.410038
vn -0.865859 0.145869 0.478550
vn -0.878508 0.036010 0.476368
vn -0.646892 0.070566 0.759310
vn -0.630784 0.237179 0.738822
vn -0.592729 0.449352 0.668398
vn -0.752672 0.453886 0.476940
vn -0.911006 0.001332 0.412391
vn -0.910951 0.009564 0.412403
vn -0.880939 0.009731 0.473130
vn -0.882818 0.000447 0.469716
vn -0.669387 0.002716 0.742909
vn -0.658448 0.021209 0.752328
vn -0.910996 -0.001940 0.412411
vn -0.884088 -0.004380 0.467299
vn -0.677125 -0.014348 0.735728
vn -0.677143 -0.009268 0.735793
vn -0.910955 0.007330 0.412441
vn -0.881518 0.004292 0.472131
vn -0.661882 -0.014450 0.749469
vn -0.916780 0.151356 0.369603
vn -0.943065 0.329485 0.045472
vn -0.989736 0.128650 0.062217
vn -0.967170 0.213279 0.138185
vn -0.923888 0.040484 0.380516
vn -0.923862 0.013652 0.382482
vn -0.994828 0.064404 0.078549
vn -0.995587 0.044287 0.082740
vn -0.923793 0.004656 0.382864
vn -0.923610 -0.000411 0.383334
vn -0.995775 0.026152 0.088027
vn -0.996608 0.002794 0.082244
vn -0.923806 -0.001531 0.382858
vn 0.393871 -0.079567 0.915715
vn 0.103613 -0.077166 0.991620
vn 0.121209 -0.070259 0.990137
vn 0.477925 -0.071146 0.875515
vn 0.631322 -0.050826 0.773854
vn -0.352438 -0.042286 0.934879
vn -0.037937 -0.069554 0.996857
vn 0.651780 -0.030249 -0.757804
vn 0.482763 -0.067829 -0.873120
vn 0.355072 -0.116496 -0.927552
vn 0.570227 -0.057223 -0.819491
vn 0.520021 -0.072682 -0.851056
vn 0.282316 -0.139934 -0.949061
vn -0.558297 -0.185061 -0.808738
vn -0.688787 -0.159722 -0.707150
vn -0.879929 -0.097566 -0.464979
vn 0.524329 0.300949 -0.796561
vn 0.554744 0.141347 -0.819927
vn -0.952753 0.197911 -0.230419
vn -0.856335 0.454196 -0.245758
vn -0.910929 0.407978 -0.061332
vn -0.612856 0.649184 0.450520
vn -0.465528 0.532373 0.707010
vn 0.798822 0.580508 0.157779
vn 0.658109 0.673598 0.336389
vn 0.687666 0.716593 -0.116658
vn 0.688264 0.140760 0.711674
vn 0.641892 0.401254 0.653430
vn -0.384700 0.297580 0.873757
vn -0.394477 0.096185 0.913858
vn 0.574368 0.093782 -0.813208
vn 0.696610 0.069673 -0.714059
vn 0.707771 0.054328 -0.704350
vn 0.585849 0.073800 -0.807053
vn -0.977974 0.077151 -0.193942
vn -0.973761 0.105902 -0.201432
vn 0.752975 0.016249 0.657848
vn 0.723132 0.051177 0.688811
vn -0.414441 0.030777 0.909556
vn -0.433866 0.005652 0.900960
vn 0.595245 0.049463 -0.802020
vn 0.715852 0.036417 -0.697302
vn 0.715848 0.013049 -0.698134
vn 0.593736 0.013998 -0.804538
vn -0.980806 0.006496 -0.194877
vn -0.981640 0.048387 -0.184503
vn 0.773564 -0.022346 0.633324
vn 0.773585 -0.008360 0.633637
vn -0.447840 -0.011868 0.894035
vn -0.447730 -0.021729 0.893905
vn 0.733926 -0.032763 0.678439
vn -0.420458 -0.028938 0.906850
vn 0.563335 -0.024614 -0.825862
vn 0.698678 -0.009300 -0.715376
vn -0.995950 -0.044357 -0.078211
vn -0.961314 -0.040227 -0.272502
vn -0.999074 -0.019832 0.038176
vn 0.826566 0.036353 -0.561664
vn 0.835304 0.027193 -0.549115
vn 0.840832 0.018483 -0.540981
vn 0.841968 0.011480 -0.539405
vn 0.837803 0.010880 -0.545864
vn 0.825368 0.020543 -0.564221
vn 0.800004 0.027736 -0.599354
vn 0.783006 0.027621 -0.621401
vn -0.925513 0.004900 0.378683
vn -0.994383 -0.011234 0.105242
vn -0.930622 0.022758 0.365273
vn -0.941762 0.038792 0.334035
vn -0.967040 0.023639 0.253526
vn -0.977495 0.022906 0.209710
vn -0.948923 0.042833 0.312588
vn 0.860771 0.430940 0.270858
vn 0.862473 0.381260 0.332838
vn 0.812927 0.448302 0.371719
vn 0.812542 0.489765 0.316079
vn 0.674814 0.593601 0.438480
vn 0.661448 0.525735 0.534873
vn 0.638645 0.391720 0.662336
vn 0.753613 0.275836 0.596642
vn 0.801822 0.163323 0.574810
vn 0.867291 0.424217 0.260472
vn 0.860048 0.423986 0.283819
vn 0.947432 0.260480 0.185802
vn 0.933253 0.305375 0.189168
vn 0.968739 0.212155 0.128591
vn 0.987475 0.125106 0.096137
vn 0.995269 0.069097 0.068308
vn 0.956132 0.233125 0.177383
vn 0.855329 0.426904 0.293538
vn 0.922922 0.243194 0.298449
vn 0.855891 0.108417 0.505665
vn 0.854657 -0.187138 0.484294
vn 0.841406 -0.027979 0.539678
vn 0.953622 0.135517 0.268775
vn 0.960823 0.223804 0.163498
vn 0.926458 0.313511 0.208297
vn 0.863682 0.435384 0.253957
vn 0.925322 0.329578 0.187502
vn 0.958355 0.248650 0.140458
vn 0.955434 0.262405 0.135241
vn 0.924404 0.336070 0.180370
vn 0.868418 0.432133 0.243127
vn 0.871305 0.430314 0.235918
vn 0.923698 0.339927 0.176723
vn 0.953362 0.270861 0.133176
vn 0.872021 0.429961 0.233907
vn 0.870846 0.428680 0.240542
vn 0.926253 0.330642 0.180917
vn 0.957428 0.255895 0.133606
vn 0.686617 -0.021006 0.726715
vn 0.654669 0.127024 0.745167
vn 0.554807 0.355206 0.752341
vn -0.817683 -0.344343 0.461326
vn -0.729889 -0.284280 0.621648
vn -0.686890 -0.532203 0.494917
vn -0.815199 -0.508770 0.276773
vn -0.791278 -0.571453 0.217535
vn -0.652906 -0.625397 0.427308
vn -0.900889 -0.411450 -0.138233
vn -0.901572 -0.407327 -0.145781
vn -0.846732 -0.489387 -0.208677
vn -0.834546 -0.508004 -0.213222
vn -0.495646 -0.749125 -0.439485
vn -0.538705 -0.728737 -0.422775
vn -0.609440 -0.687993 -0.394016
vn -0.865053 -0.455724 -0.209758
vn -0.903111 -0.395823 -0.166476
vn -0.902965 -0.397309 -0.163704
vn -0.892445 -0.444476 -0.077345
vn -0.854410 -0.509905 -0.099903
vn -0.870001 -0.453419 -0.193674
vn -0.633308 -0.709643 -0.308754
vn -0.613159 -0.774725 -0.154397
vn -0.570427 -0.818862 0.063862
vn -0.733169 -0.659527 0.165792
vn -0.904314 -0.381617 -0.191273
vn -0.904068 -0.385687 -0.184138
vn -0.873164 -0.437541 -0.214806
vn -0.875336 -0.430004 -0.221096
vn -0.657833 -0.662120 -0.358961
vn -0.646239 -0.679247 -0.347848
vn -0.904399 -0.379978 -0.194113
vn -0.876763 -0.425551 -0.224039
vn -0.666074 -0.647616 -0.370052
vn -0.665983 -0.650196 -0.365665
vn -0.904113 -0.384644 -0.186087
vn -0.873877 -0.434022 -0.219007
vn -0.650631 -0.659065 -0.377244
vn -0.906850 -0.419555 -0.039971
vn -0.933360 -0.228551 0.276773
vn -0.984972 -0.144095 0.095224
vn -0.959081 -0.251492 0.130059
vn -0.916658 -0.373892 -0.141220
vn -0.917304 -0.362185 -0.165457
vn -0.991489 -0.126341 0.031440
vn -0.992718 -0.119864 0.012013
vn -0.917454 -0.358053 -0.173425
vn -0.917389 -0.355928 -0.178084
vn -0.993320 -0.115222 -0.006228
vn -0.994836 -0.098710 -0.023620
vn 0.405463 -0.742849 -0.532706
vn 0.116536 -0.817376 -0.564194
vn 0.134280 -0.819083 -0.557738
vn 0.489090 -0.710045 -0.506583
vn 0.641410 -0.628154 -0.440472
vn -0.339263 -0.797603 -0.498728
vn -0.024678 -0.829419 -0.558082
vn 0.639208 0.688368 0.342873
vn 0.467508 0.802575 0.370552
vn 0.337830 0.870653 0.357539
vn 0.556059 0.753115 0.351591
vn 0.504977 0.786859 0.354755
vn 0.264172 0.899079 0.349099
vn -0.574996 0.778195 0.252572
vn -0.703211 0.674193 0.225741
vn -0.889131 0.428289 0.161288
vn 0.519754 0.553143 0.651068
vn 0.545882 0.653834 0.523941
vn -0.950651 0.075627 0.300904
vn -0.847734 -0.036373 0.529172
vn -0.900832 -0.174391 0.397604
vn -0.588667 -0.730593 0.345984
vn -0.440456 -0.890442 0.114506
vn 0.815946 -0.406015 0.411563
vn 0.680063 -0.611100 0.405057
vn 0.703784 -0.239560 0.668804
vn 0.804039 -0.141356 0.577528
vn 0.702427 -0.668500 -0.244345
vn 0.661914 -0.749501 0.010882
vn -0.363548 -0.915322 -0.173260
vn -0.377954 -0.849678 -0.367694
vn 0.564335 0.672315 0.479081
vn 0.687319 0.601737 0.406823
vn 0.698187 0.601294 0.388563
vn 0.575305 0.677285 0.458595
vn -0.978455 0.103740 0.178507
vn -0.973644 0.095801 0.206978
vn 0.763006 -0.558028 -0.326232
vn 0.734564 -0.603065 -0.311012
vn -0.399669 -0.813810 -0.421874
vn -0.419900 -0.794316 -0.439028
vn 0.584140 0.685340 0.434843
vn 0.705919 0.604355 0.369369
vn 0.705282 0.616769 0.349532
vn 0.581607 0.705250 0.405408
vn -0.983133 0.139795 0.117926
vn -0.982658 0.110155 0.149161
vn 0.782201 -0.516978 -0.347700
vn 0.782593 -0.524233 -0.335750
vn -0.434437 -0.779932 -0.450523
vn -0.434581 -0.774892 -0.459001
vn 0.742993 -0.551874 -0.378676
vn -0.407315 -0.781784 -0.472131
vn 0.549834 0.742220 0.383135
vn 0.687252 0.642416 0.339095
vn -0.997842 0.063746 0.015732
vn -0.966133 0.230602 0.115805
vn -0.998551 -0.049447 -0.021232
vn 0.818635 0.489839 0.299824
vn 0.827340 0.483738 0.285494
vn 0.832770 0.481197 0.273758
vn 0.833740 0.483372 0.266889
vn 0.829456 0.489153 0.269688
vn 0.817004 0.499894 0.287422
vn 0.791310 0.526047 0.311614
vn 0.773984 0.544742 0.322809
vn -0.919232 -0.354589 -0.171108
vn -0.992614 -0.111681 -0.047379
vn -0.924068 -0.352047 -0.148869
vn -0.935241 -0.333332 -0.119223
vn -0.962107 -0.256776 -0.091735
vn -0.973246 -0.218735 -0.070340
vn -0.942617 -0.316966 -0.104911
vn 0.875758 -0.427252 0.224729
vn 0.877094 -0.456106 0.150573
vn 0.829863 -0.524612 0.190026
vn 0.829752 -0.497099 0.253779
vn 0.696734 -0.658483 0.284537
vn 0.683076 -0.708358 0.177866
vn 0.658721 -0.752385 -0.001520
vn 0.769504 -0.634712 -0.070741
vn 0.814485 -0.558245 -0.158042
vn 0.881924 -0.414777 0.223987
vn 0.875017 -0.435084 0.212245
vn 0.956637 -0.266172 0.118313
vn 0.943686 -0.291912 0.155707
vn 0.975811 -0.191909 0.104710
vn 0.991775 -0.119729 0.045249
vn 0.997670 -0.067402 0.010578
vn 0.964491 -0.244964 0.098743
vn 0.870522 -0.445074 0.210003
vn 0.933378 -0.355762 0.047312
vn 0.866037 -0.469466 -0.171995
vn 0.856640 -0.303623 -0.417110
vn 0.848457 -0.431253 -0.306825
vn 0.960766 -0.275571 -0.031469
vn 0.968662 -0.228392 0.097631
vn 0.937365 -0.312769 0.153369
vn 0.878513 -0.414805 0.236964
vn 0.936349 -0.302804 0.177652
vn 0.966543 -0.220761 0.130608
vn 0.963947 -0.223061 0.145084
vn 0.935513 -0.299849 0.186832
vn 0.882986 -0.403695 0.239511
vn 0.885726 -0.396448 0.241492
vn 0.934848 -0.298639 0.192025
vn 0.962048 -0.225602 0.153519
vn 0.886411 -0.394502 0.242166
vn 0.885303 -0.399635 0.237759
vn 0.937221 -0.297575 0.181842
vn 0.965710 -0.218449 0.140303
vn 0.697036 -0.600669 -0.391584
vn 0.669090 -0.691540 -0.272198
vn 0.575419 -0.814241 -0.076845
vn -0.819430 -0.248665 -0.516431
vn -0.727807 -0.415079 -0.545900
vn -0.693092 -0.180501 -0.697885
vn -0.823960 -0.006782 -0.566607
vn -0.802464 0.076449 -0.591783
vn -0.662360 -0.074585 -0.745464
vn -0.913308 0.301695 -0.273586
vn -0.914010 0.306134 -0.266210
vn -0.862310 0.402993 -0.306622
vn -0.850681 0.416536 -0.320687
vn -0.521719 0.741756 -0.421434
vn -0.563971 0.715983 -0.411467
vn -0.633148 0.668893 -0.389494
vn -0.879762 0.386640 -0.276637
vn -0.915591 0.318213 -0.245834
vn -0.915388 0.316680 -0.248551
vn -0.904796 0.265701 -0.332786
vn -0.868794 0.318977 -0.378749
vn -0.884322 0.371579 -0.282672
vn -0.656285 0.605260 -0.450499
vn -0.635515 0.504711 -0.584283
vn -0.590848 0.338827 -0.732185
vn -0.747591 0.166688 -0.642902
vn -0.916769 0.332614 -0.221139
vn -0.916498 0.328515 -0.228273
vn -0.887418 0.381780 -0.258326
vn -0.889523 0.383354 -0.248575
vn -0.680302 0.624346 -0.383904
vn -0.669030 0.623544 -0.404465
vn -0.916872 0.334207 -0.218293
vn -0.890891 0.383619 -0.243207
vn -0.688314 0.626497 -0.365686
vn -0.688225 0.623995 -0.370103
vn -0.916605 0.329570 -0.226315
vn -0.888150 0.383574 -0.253102
vn -0.673285 0.638855 -0.372226
vn -0.918015 0.220443 -0.329625
vn -0.934731 -0.149834 -0.322224
vn -0.986859 -0.036384 -0.157435
vn -0.963255 -0.012132 -0.268313
vn -0.928159 0.285072 -0.239280
vn -0.928866 0.300185 -0.217019
vn -0.993879 0.009713 -0.110050
vn -0.995224 0.023415 -0.094765
vn -0.929025 0.305033 -0.209445
vn -0.928971 0.308003 -0.205295
vn -0.995973 0.036997 -0.081667
vn -0.997324 0.043705 -0.058601
vn -0.929191 0.308141 -0.204089
vn 0.377772 0.842966 -0.383010
vn 0.086559 0.899895 -0.427429
vn 0.104347 0.895624 -0.432400
vn 0.462611 0.806153 -0.368928
vn 0.617995 0.711997 -0.333379
vn -0.367510 0.821406 -0.436151
vn -0.054809 0.896923 -0.438777
vn 0.662170 -0.623983 0.414940
vn 0.493989 -0.709496 0.502583
vn 0.365907 -0.735661 0.570012
vn 0.580850 -0.666088 0.467911
vn 0.530705 -0.687033 0.496325
vn 0.292861 -0.744495 0.599967
vn -0.550678 -0.622433 0.556175
vn -0.681894 -0.550621 0.481495
vn -0.874922 -0.377111 0.303806
vn 0.544080 -0.826284 0.145708
vn 0.570822 -0.765898 0.295911
vn -0.943611 -0.323468 -0.070475
vn -0.840377 -0.462044 -0.283340
vn -0.898984 -0.280644 -0.336254
vn -0.602428 0.049891 -0.796612
vn -0.462199 0.334137 -0.821416
vn 0.811126 -0.132199 -0.569734
vn 0.669832 -0.027671 -0.741997
vn 0.707421 -0.440989 -0.552344
vn 0.808749 -0.408385 -0.423256
vn 0.680853 0.563928 -0.467359
vn 0.641984 0.382432 -0.664531
vn -0.390151 0.597792 -0.700305
vn -0.405771 0.732870 -0.546124
vn 0.589066 -0.735801 0.334063
vn 0.708969 -0.634803 0.307227
vn 0.719511 -0.618518 0.315817
vn 0.599782 -0.720305 0.348456
vn -0.972546 -0.232199 0.015426
vn -0.967453 -0.252987 -0.005651
vn 0.743194 0.581135 -0.331579
vn 0.713740 0.589808 -0.377758
vn -0.427316 0.761297 -0.487677
vn -0.447125 0.765961 -0.461934
vn 0.608396 -0.703588 0.367176
vn 0.727000 -0.603257 0.327952
vn 0.726401 -0.592297 0.348605
vn 0.605933 -0.688130 0.399152
vn -0.977208 -0.197807 0.077046
vn -0.977071 -0.209909 0.035653
vn 0.763128 0.579735 -0.285557
vn 0.763591 0.572931 -0.297790
vn -0.461371 0.768386 -0.443531
vn -0.461556 0.773179 -0.434925
vn 0.722468 0.623043 -0.299763
vn -0.434716 0.788692 -0.434727
vn 0.574853 -0.688113 0.442769
vn 0.708930 -0.596508 0.376293
vn -0.995470 -0.071673 0.062474
vn -0.957763 -0.241140 0.156657
vn -0.999714 0.016830 -0.017002
vn 0.835615 -0.482881 0.261864
vn 0.843937 -0.467202 0.263614
vn 0.849122 -0.455627 0.267200
vn 0.850056 -0.450728 0.272488
vn 0.845978 -0.456135 0.276156
vn 0.834069 -0.477193 0.276794
vn 0.809429 -0.511894 0.287733
vn 0.792772 -0.531378 0.298581
vn -0.930671 0.301262 -0.207587
vn -0.995811 0.070732 -0.057943
vn -0.935111 0.280570 -0.216443
vn -0.945359 0.245211 -0.214869
vn -0.969793 0.182447 -0.161907
vn -0.979620 0.144551 -0.139460
vn -0.952091 0.224437 -0.207729

usemtl Paint
f 22853/19817/16594 22854/19816/16593 22850/19815/16592 22867/19814/16591
f 22852/19819/16596 22854/19816/16593 22853/19817/16594 22889/19818/16595
f 22851/19821/16598 22854/19816/16593 22852/19819/16596 22894/19820/16597
f 22850/19815/16592 22854/19816/16593 22851/19821/16598 22855/19822/16599
f 22848/19826/16603 22849/19825/16602 22845/19824/16601 22865/19823/16600
f 22847/19828/16605 22849/19825/16602 22848/19826/16603 22885/19827/16604
f 22846/19830/16607 22849/19825/16602 22847/19828/16605 22892/19829/16606
f 22845/19824/16601 22849/19825/16602 22846/19830/16607 22864/19831/16608
f 22843/19833/16610 22844/19832/16609 22850/19815/16592 22855/19822/16599
f 22842/19835/16612 22844/19832/16609 22843/19833/16610 22893/19834/16611
f 22841/19837/16614 22844/19832/16609 22842/19835/16612 22890/19836/16613
f 22850/19815/16592 22844/19832/16609 22841/19837/16614 22867/19814/16591
f 22841/19837/16614 22840/19839/16616 22837/19838/16615 22867/19814/16591
f 22839/19840/16617 22840/19839/16616 22841/19837/16614 22890/19836/16613
f 22838/19842/16619 22840/19839/16616 22839/19840/16617 22887/19841/16618
f 22837/19838/16615 22840/19839/16616 22838/19842/16619 22868/19843/16620
f 22838/19842/16619 22836/19845/16622 22833/19844/16621 22868/19843/16620
f 22835/19846/16623 22836/19845/16622 22838/19842/16619 22887/19841/16618
f 22834/19848/16622 22836/19845/16622 22835/19846/16623 22884/19847/16623
f 22833/19844/16621 22836/19845/16622 22834/19848/16622 22866/19849/16624
f 22834/19848/16622 22832/19851/16626 22830/19850/16625 22866/19849/16624
f 22831/19852/16627 22832/19851/16626 22834/19848/16622 22884/19847/16623
f 22848/19826/16603 22832/19851/16626 22831/19852/16627 22885/19827/16604
f 22830/19850/16625 22832/19851/16626 22848/19826/16603 22865/19823/16600
f 22851/19821/16598 22829/19854/16629 22826/19853/16628 22855/19822/16599
f 22828/19855/16630 22829/19854/16629 22851/19821/16598 22894/19820/16597
f 22827/19857/16634 22829/19854/16633 22828/19855/16632 22875/19856/16631
f 22826/19853/16636 22829/19854/16633 22827/19857/16634 22856/19858/16635
f 22824/19862/16640 22825/19861/16639 22821/19860/16638 22861/19859/16637
f 22823/19864/16642 22825/19861/16639 22824/19862/16640 22882/19863/16641
f 22822/19866/16644 22825/19861/16639 22823/19864/16642 22878/19865/16643
f 22821/19860/16638 22825/19861/16639 22822/19866/16644 22860/19867/16645
f 22819/19871/16649 22820/19870/16648 22816/19869/16647 22857/19868/16646
f 22818/19873/16651 22820/19870/16648 22819/19871/16649 22873/19872/16650
f 22817/19875/16653 22820/19870/16648 22818/19873/16651 22874/19874/16652
f 22816/19869/16647 22820/19870/16648 22817/19875/16653 22856/19858/16635
f 22814/19879/16657 22815/19878/16656 22812/19877/16655 22858/19876/16654
f 22813/19881/16659 22815/19878/16656 22814/19879/16657 22871/19880/16658
f 22819/19871/16649 22815/19878/16656 22813/19881/16659 22873/19872/16650
f 22812/19877/16655 22815/19878/16656 22819/19871/16649 22857/19868/16646
f 22810/19885/16661 22811/19884/16661 22808/19883/16660 22859/19882/16660
f 22809/19887/16663 22811/19884/16661 22810/19885/16661 22869/19886/16662
f 22814/19879/16657 22811/19884/16661 22809/19887/16663 22871/19880/16658
f 22808/19883/16660 22811/19884/16661 22814/19879/16657 22858/19876/16654
f 22822/19866/16644 22807/19889/16665 22805/19888/16664 22860/19867/16645
f 22806/19890/16666 22807/19889/16665 22822/19866/16644 22878/19865/16643
f 22810/19885/16661 22807/19889/16665 22806/19890/16666 22869/19886/16662
f 22805/19888/16664 22807/19889/16665 22810/19885/16661 22859/19882/16660
f 22827/19857/16634 22804/19891/16667 22816/19869/16647 22856/19858/16635
f 22803/19892/16668 22804/19891/16667 22827/19857/16634 22875/19856/16631
f 22802/19894/16671 22804/19891/16667 22803/19892/16670 22876/19893/16669
f 22816/19869/16647 22804/19891/16667 22802/19894/16671 22857/19868/16646
f 22802/19894/16671 22801/19895/16672 22812/19877/16655 22857/19868/16646
f 22800/19896/16673 22801/19895/16672 22802/19894/16671 22876/19893/16669
f 22799/19898/16675 22801/19895/16672 22800/19896/16673 22872/19897/16674
f 22812/19877/16655 22801/19895/16672 22799/19898/16675 22858/19876/16654
f 22799/19898/16675 22798/19899/16676 22808/19883/16660 22858/19876/16654
f 22797/19900/16677 22798/19899/16676 22799/19898/16675 22872/19897/16674
f 22796/19902/16679 22798/19899/16676 22797/19900/16677 22870/19901/16678
f 22808/19883/16660 22798/19899/16676 22796/19902/16679 22859/19882/16660
f 22847/19828/16683 22795/19904/16682 22793/19903/16681 22892/19829/16680
f 22794/19905/16684 22795/19904/16683 22847/19828/16683 22885/19827/16684
f 22823/19864/16642 22795/19904/16686 22794/19905/16685 22878/19865/16643
f 22793/19903/16681 22795/19904/16686 22823/19864/16642 22882/19863/16641
f 22791/19909/16690 22792/19908/16689 22788/19907/16688 22886/19906/16687
f 22790/19911/16692 22792/19908/16689 22791/19909/16690 22891/19910/16691
f 22789/19913/16694 22792/19908/16694 22790/19911/16693 22879/19912/16693
f 22788/19907/16695 22792/19908/16694 22789/19913/16694 22877/19914/16695
f 22852/19819/16596 22787/19915/16696 22828/19855/16630 22894/19820/16597
f 22786/19916/16697 22787/19915/16696 22852/19819/16596 22889/19818/16595
f 22803/19892/16668 22787/19915/16699 22786/19916/16698 22876/19893/16669
f 22828/19855/16632 22787/19915/16699 22803/19892/16700 22875/19856/16631
f 22817/19875/16653 22785/19917/16701 22826/19853/16636 22856/19858/16635
f 22784/19918/16702 22785/19917/16701 22817/19875/16653 22874/19874/16652
f 22843/19833/16610 22785/19917/16705 22784/19918/16704 22893/19834/16703
f 22826/19853/16628 22785/19917/16705 22843/19833/16610 22855/19822/16599
f 22842/19835/16707 22783/19920/16707 22782/19919/16706 22890/19836/16706
f 22784/19918/16704 22783/19920/16707 22842/19835/16707 22893/19834/16704
f 22818/19873/16651 22783/19920/16708 22784/19918/16702 22874/19874/16652
f 22782/19919/16709 22783/19920/16708 22818/19873/16651 22873/19872/16650
f 22780/19922/16711 22781/19921/16710 22786/19916/16697 22889/19818/16595
f 22779/19924/16713 22781/19921/16710 22780/19922/16711 22888/19923/16712
f 22800/19896/16673 22781/19921/16715 22779/19924/16714 22872/19897/16674
f 22786/19916/16698 22781/19921/16715 22800/19896/16673 22876/19893/16669
f 22839/19840/16717 22778/19926/16717 22777/19925/16716 22887/19841/16716
f 22782/19919/16706 22778/19926/16717 22839/19840/16717 22890/19836/16706
f 22813/19881/16659 22778/19926/16718 22782/19919/16709 22873/19872/16650
f 22777/19925/16719 22778/19926/16718 22813/19881/16659 22871/19880/16658
f 22775/19928/16721 22776/19927/16720 22779/19924/16713 22888/19923/16712
f 22774/19930/16723 22776/19927/16720 22775/19928/16721 22883/19929/16722
f 22797/19900/16677 22776/19927/16725 22774/19930/16724 22870/19901/16678
f 22779/19924/16714 22776/19927/16725 22797/19900/16677 22872/19897/16674
f 22835/19846/16727 22773/19932/16727 22772/19931/16726 22884/19847/16726
f 22777/19925/16716 22773/19932/16727 22835/19846/16727 22887/19841/16716
f 22809/19887/16663 22773/19932/16728 22777/19925/16719 22871/19880/16658
f 22772/19931/16729 22773/19932/16728 22809/19887/16663 22869/19886/16662
f 22831/19852/16730 22771/19933/16730 22794/19905/16684 22885/19827/16684
f 22772/19931/16726 22771/19933/16730 22831/19852/16730 22884/19847/16726
f 22806/19890/16666 22771/19933/16731 22772/19931/16729 22869/19886/16662
f 22794/19905/16685 22771/19933/16731 22806/19890/16666 22878/19865/16643
f 22769/19935/16733 22770/19934/16732 22774/19930/16723 22883/19929/16722
f 22788/19907/16688 22770/19934/16732 22769/19935/16733 22886/19906/16687
f 22768/19936/16736 22770/19934/16735 22788/19907/16695 22877/19914/16734
f 22774/19930/16724 22770/19934/16735 22768/19936/16736 22870/19901/16678
f 22766/19938/16738 22767/19937/16737 22837/19838/16615 22868/19843/16620
f 22780/19922/16711 22767/19937/16737 22766/19938/16738 22888/19923/16712
f 22853/19817/16594 22767/19937/16737 22780/19922/16711 22889/19818/16595
f 22837/19838/16615 22767/19937/16737 22853/19817/16594 22867/19814/16591
f 22764/19940/16740 22765/19939/16739 22833/19844/16621 22866/19849/16624
f 22775/19928/16721 22765/19939/16739 22764/19940/16740 22883/19929/16722
f 22766/19938/16738 22765/19939/16739 22775/19928/16721 22888/19923/16712
f 22833/19844/16621 22765/19939/16739 22766/19938/16738 22868/19843/16620
f 22762/19942/16742 22763/19941/16741 22830/19850/16625 22865/19823/16600
f 22769/19935/16733 22763/19941/16741 22762/19942/16742 22886/19906/16687
f 22764/19940/16740 22763/19941/16741 22769/19935/16733 22883/19929/16722
f 22830/19850/16625 22763/19941/16741 22764/19940/16740 22866/19849/16624
f 22760/19944/16744 22761/19943/16743 22845/19824/16601 22864/19831/16608
f 22791/19909/16690 22761/19943/16743 22760/19944/16744 22891/19910/16691
f 22762/19942/16742 22761/19943/16743 22791/19909/16690 22886/19906/16687
f 22845/19824/16601 22761/19943/16743 22762/19942/16742 22865/19823/16600
f 22796/19902/16679 22759/19945/16745 22805/19888/16664 22859/19882/16660
f 22768/19936/16736 22759/19945/16745 22796/19902/16679 22870/19901/16678
f 22758/19946/16747 22759/19945/16745 22768/19936/16736 22877/19914/16746
f 22805/19888/16664 22759/19945/16745 22758/19946/16747 22860/19867/16645
f 22758/19946/16747 22757/19947/16748 22821/19860/16638 22860/19867/16645
f 22789/19913/16749 22757/19947/16748 22758/19946/16747 22877/19914/16746
f 22756/19948/16751 22757/19947/16748 22789/19913/16749 22879/19912/16750
f 22821/19860/16638 22757/19947/16748 22756/19948/16751 22861/19859/16637
f 22712/19952/16755 22713/19951/16754 22709/19950/16753 22726/19949/16752
f 22711/19954/16757 22713/19951/16754 22712/19952/16755 22748/19953/16756
f 22710/19956/16759 22713/19951/16754 22711/19954/16757 22753/19955/16758
f 22709/19950/16753 22713/19951/16754 22710/19956/16759 22714/19957/16760
f 22707/19961/16764 22708/19960/16763 22704/19959/16762 22724/19958/16761
f 22706/19963/16766 22708/19960/16763 22707/19961/16764 22744/19962/16765
f 22705/19965/16768 22708/19960/16763 22706/19963/16766 22751/19964/16767
f 22704/19959/16762 22708/19960/16763 22705/19965/16768 22723/19966/16769
f 22702/19968/16771 22703/19967/16770 22709/19950/16753 22714/19957/16760
f 22701/19970/16774 22703/19967/16770 22702/19968/16773 22752/19969/16772
f 22700/19972/16776 22703/19967/16770 22701/19970/16774 22749/19971/16775
f 22709/19950/16753 22703/19967/16770 22700/19972/16776 22726/19949/16752
f 22700/19972/16776 22699/19974/16778 22696/19973/16777 22726/19949/16752
f 22698/19975/16779 22699/19974/16778 22700/19972/16776 22749/19971/16775
f 22697/19977/16781 22699/19974/16778 22698/19975/16779 22746/19976/16780
f 22696/19973/16777 22699/19974/16778 22697/19977/16781 22727/19978/16782
f 22697/19977/16781 22695/19980/16784 22692/19979/16783 22727/19978/16782
f 22694/19981/16785 22695/19980/16784 22697/19977/16781 22746/19976/16780
f 22693/19983/16784 22695/19980/16784 22694/19981/16785 22743/19982/16785
f 22692/19979/16783 22695/19980/16784 22693/19983/16784 22725/19984/16786
f 22693/19983/16784 22691/19986/16788 22689/19985/16787 22725/19984/16786
f 22690/19987/16789 22691/19986/16788 22693/19983/16784 22743/19982/16785
f 22707/19961/16764 22691/19986/16788 22690/19987/16789 22744/19962/16765
f 22689/19985/16787 22691/19986/16788 22707/19961/16764 22724/19958/16761
f 22710/19956/16759 22688/19989/16791 22685/19988/16790 22714/19957/16760
f 22687/19990/16792 22688/19989/16791 22710/19956/16759 22753/19955/16758
f 22686/19992/16796 22688/19989/16795 22687/19990/16794 22734/19991/16793
f 22685/19988/16798 22688/19989/16795 22686/19992/16796 22715/19993/16797
f 22683/19997/16802 22684/19996/16801 22680/19995/16800 22720/19994/16799
f 22682/19999/16804 22684/19996/16801 22683/19997/16802 22741/19998/16803
f 22681/20001/16806 22684/19996/16801 22682/19999/16804 22737/20000/16805
f 22680/19995/16800 22684/19996/16801 22681/20001/16806 22719/20002/16807
f 22678/20006/16811 22679/20005/16810 22675/20004/16809 22716/20003/16808
f 22677/20008/16813 22679/20005/16810 22678/20006/16811 22732/20007/16812
f 22676/20010/16815 22679/20005/16810 22677/20008/16813 22733/20009/16814
f 22675/20004/16809 22679/20005/16810 22676/20010/16815 22715/19993/16797
f 22673/20014/16819 22674/20013/16818 22671/20012/16817 22717/20011/16816
f 22672/20016/16821 22674/20013/16818 22673/20014/16819 22730/20015/16820
f 22678/20006/16811 22674/20013/16818 22672/20016/16821 22732/20007/16812
f 22671/20012/16817 22674/20013/16818 22678/20006/16811 22716/20003/16808
f 22669/20020/16823 22670/20019/16823 22667/20018/16822 22718/20017/16822
f 22668/20022/16825 22670/20019/16823 22669/20020/16823 22728/20021/16824
f 22673/20014/16819 22670/20019/16823 22668/20022/16825 22730/20015/16820
f 22667/20018/16822 22670/20019/16823 22673/20014/16819 22717/20011/16816
f 22681/20001/16806 22666/20024/16827 22664/20023/16826 22719/20002/16807
f 22665/20025/16828 22666/20024/16827 22681/20001/16806 22737/20000/16805
f 22669/20020/16823 22666/20024/16827 22665/20025/16828 22728/20021/16824
f 22664/20023/16826 22666/20024/16827 22669/20020/16823 22718/20017/16822
f 22686/19992/16796 22663/20026/16829 22675/20004/16809 22715/19993/16797
f 22662/20027/16830 22663/20026/16829 22686/19992/16796 22734/19991/16793
f 22661/20029/16833 22663/20026/16829 22662/20027/16832 22735/20028/16831
f 22675/20004/16809 22663/20026/16829 22661/20029/16833 22716/20003/16808
f 22661/20029/16833 22660/20030/16834 22671/20012/16817 22716/20003/16808
f 22659/20031/16835 22660/20030/16834 22661/20029/16833 22735/20028/16831
f 22658/20033/16837 22660/20030/16834 22659/20031/16835 22731/20032/16836
f 22671/20012/16817 22660/20030/16834 22658/20033/16837 22717/20011/16816
f 22658/20033/16837 22657/20034/16838 22667/20018/16822 22717/20011/16816
f 22656/20035/16839 22657/20034/16838 22658/20033/16837 22731/20032/16836
f 22655/20037/16838 22657/20034/16838 22656/20035/16839 22729/20036/16840
f 22667/20018/16822 22657/20034/16838 22655/20037/16838 22718/20017/16822
f 22706/19963/16844 22654/20039/16843 22652/20038/16842 22751/19964/16841
f 22653/20040/16845 22654/20039/16844 22706/19963/16844 22744/19962/16845
f 22682/19999/16804 22654/20039/16847 22653/20040/16846 22737/20000/16805
f 22652/20038/16842 22654/20039/16847 22682/19999/16804 22741/19998/16803
f 22650/20044/16851 22651/20043/16850 22647/20042/16849 22745/20041/16848
f 22649/20046/16853 22651/20043/16850 22650/20044/16851 22750/20045/16852
f 22648/20048/16855 22651/20043/16855 22649/20046/16854 22738/20047/16854
f 22647/20042/16856 22651/20043/16855 22648/20048/16855 22736/20049/16856
f 22711/19954/16757 22646/20050/16857 22687/19990/16792 22753/19955/16758
f 22645/20051/16858 22646/20050/16857 22711/19954/16757 22748/19953/16756
f 22662/20027/16830 22646/20050/16860 22645/20051/16859 22735/20028/16831
f 22687/19990/16794 22646/20050/16860 22662/20027/16861 22734/19991/16793
f 22676/20010/16815 22644/20052/16862 22685/19988/16798 22715/19993/16797
f 22643/20053/16863 22644/20052/16862 22676/20010/16815 22733/20009/16814
f 22702/19968/16867 22644/20052/16866 22643/20053/16865 22752/19969/16864
f 22685/19988/16790 22644/20052/16866 22702/19968/16773 22714/19957/16760
f 22701/19970/16869 22642/20055/16869 22641/20054/16868 22749/19971/16868
f 22643/20053/16865 22642/20055/16869 22701/19970/16869 22752/19969/16865
f 22677/20008/16813 22642/20055/16870 22643/20053/16863 22733/20009/16814
f 22641/20054/16871 22642/20055/16870 22677/20008/16813 22732/20007/16812
f 22639/20057/16873 22640/20056/16872 22645/20051/16858 22748/19953/16756
f 22638/20059/16875 22640/20056/16872 22639/20057/16873 22747/20058/16874
f 22659/20031/16835 22640/20056/16877 22638/20059/16876 22731/20032/16836
f 22645/20051/16859 22640/20056/16877 22659/20031/16835 22735/20028/16831
f 22698/19975/16879 22637/20061/16879 22636/20060/16878 22746/19976/16878
f 22641/20054/16868 22637/20061/16879 22698/19975/16879 22749/19971/16868
f 22672/20016/16821 22637/20061/16880 22641/20054/16871 22732/20007/16812
f 22636/20060/16881 22637/20061/16880 22672/20016/16821 22730/20015/16820
f 22634/20063/16883 22635/20062/16882 22638/20059/16875 22747/20058/16874
f 22633/20065/16885 22635/20062/16882 22634/20063/16883 22742/20064/16884
f 22656/20035/16839 22635/20062/16887 22633/20065/16886 22729/20036/16840
f 22638/20059/16876 22635/20062/16887 22656/20035/16839 22731/20032/16836
f 22694/19981/16889 22632/20067/16889 22631/20066/16888 22743/19982/16888
f 22636/20060/16878 22632/20067/16889 22694/19981/16889 22746/19976/16878
f 22668/20022/16825 22632/20067/16890 22636/20060/16881 22730/20015/16820
f 22631/20066/16891 22632/20067/16890 22668/20022/16825 22728/20021/16824
f 22690/19987/16892 22630/20068/16892 22653/20040/16845 22744/19962/16845
f 22631/20066/16888 22630/20068/16892 22690/19987/16892 22743/19982/16888
f 22665/20025/16828 22630/20068/16893 22631/20066/16891 22728/20021/16824
f 22653/20040/16846 22630/20068/16893 22665/20025/16828 22737/20000/16805
f 22628/20070/16895 22629/20069/16894 22633/20065/16885 22742/20064/16884
f 22647/20042/16849 22629/20069/16894 22628/20070/16895 22745/20041/16848
f 22627/20071/16898 22629/20069/16897 22647/20042/16856 22736/20049/16896
f 22633/20065/16886 22629/20069/16897 22627/20071/16898 22729/20036/16840
f 22625/20073/16900 22626/20072/16899 22696/19973/16777 22727/19978/16782
f 22639/20057/16873 22626/20072/16899 22625/20073/16900 22747/20058/16874
f 22712/19952/16755 22626/20072/16899 22639/20057/16873 22748/19953/16756
f 22696/19973/16777 22626/20072/16899 22712/19952/16755 22726/19949/16752
f 22623/20075/16902 22624/20074/16901 22692/19979/16783 22725/19984/16786
f 22634/20063/16883 22624/20074/16901 22623/20075/16902 22742/20064/16884
f 22625/20073/16900 22624/20074/16901 22634/20063/16883 22747/20058/16874
f 22692/19979/16783 22624/20074/16901 22625/20073/16900 22727/19978/16782
f 22621/20077/16904 22622/20076/16903 22689/19985/16787 22724/19958/16761
f 22628/20070/16895 22622/20076/16903 22621/20077/16904 22745/20041/16848
f 22623/20075/16902 22622/20076/16903 22628/20070/16895 22742/20064/16884
f 22689/19985/16787 22622/20076/16903 22623/20075/16902 22725/19984/16786
f 22619/20079/16906 22620/20078/16905 22704/19959/16762 22723/19966/16769
f 22650/20044/16851 22620/20078/16905 22619/20079/16906 22750/20045/16852
f 22621/20077/16904 22620/20078/16905 22650/20044/16851 22745/20041/16848
f 22704/19959/16762 22620/20078/16905 22621/20077/16904 22724/19958/16761
f 22655/20037/16838 22618/20080/16907 22664/20023/16826 22718/20017/16822
f 22627/20071/16898 22618/20080/16907 22655/20037/16838 22729/20036/16840
f 22617/20081/16909 22618/20080/16907 22627/20071/16898 22736/20049/16908
f 22664/20023/16826 22618/20080/16907 22617/20081/16909 22719/20002/16807
f 22617/20081/16909 22616/20082/16910 22680/19995/16800 22719/20002/16807
f 22648/20048/16911 22616/20082/16910 22617/20081/16909 22736/20049/16908
f 22615/20083/16913 22616/20082/16910 22648/20048/16911 22738/20047/16912
f 22680/19995/16800 22616/20082/16910 22615/20083/16913 22720/19994/16799
f 22571/20087/16917 22572/20086/16916 22568/20085/16915 22585/20084/16914
f 22570/20089/16919 22572/20086/16916 22571/20087/16917 22607/20088/16918
f 22569/20091/16921 22572/20086/16916 22570/20089/16919 22612/20090/16920
f 22568/20085/16915 22572/20086/16916 22569/20091/16921 22573/20092/16922
f 22566/20096/16926 22567/20095/16925 22563/20094/16924 22583/20093/16923
f 22565/20098/16928 22567/20095/16925 22566/20096/16926 22603/20097/16927
f 22564/20100/16930 22567/20095/16925 22565/20098/16928 22610/20099/16929
f 22563/20094/16924 22567/20095/16925 22564/20100/16930 22582/20101/16931
f 22561/20103/16933 22562/20102/16932 22568/20085/16915 22573/20092/16922
f 22560/20105/16936 22562/20102/16932 22561/20103/16935 22611/20104/16934
f 22559/20107/16938 22562/20102/16932 22560/20105/16936 22608/20106/16937
f 22568/20085/16915 22562/20102/16932 22559/20107/16938 22585/20084/16914
f 22559/20107/16938 22558/20109/16940 22555/20108/16939 22585/20084/16914
f 22557/20110/16941 22558/20109/16940 22559/20107/16938 22608/20106/16937
f 22556/20112/16943 22558/20109/16940 22557/20110/16941 22605/20111/16942
f 22555/20108/16939 22558/20109/16940 22556/20112/16943 22586/20113/16944
f 22556/20112/16943 22554/20115/16946 22551/20114/16945 22586/20113/16944
f 22553/20116/16947 22554/20115/16946 22556/20112/16943 22605/20111/16942
f 22552/20118/16946 22554/20115/16946 22553/20116/16947 22602/20117/16947
f 22551/20114/16945 22554/20115/16946 22552/20118/16946 22584/20119/16948
f 22552/20118/16946 22550/20121/16950 22548/20120/16949 22584/20119/16948
f 22549/20122/16951 22550/20121/16950 22552/20118/16946 22602/20117/16947
f 22566/20096/16926 22550/20121/16950 22549/20122/16951 22603/20097/16927
f 22548/20120/16949 22550/20121/16950 22566/20096/16926 22583/20093/16923
f 22569/20091/16921 22547/20124/16953 22544/20123/16952 22573/20092/16922
f 22546/20125/16954 22547/20124/16953 22569/20091/16921 22612/20090/16920
f 22545/20127/16958 22547/20124/16957 22546/20125/16956 22593/20126/16955
f 22544/20123/16960 22547/20124/16957 22545/20127/16958 22574/20128/16959
f 22542/20132/16964 22543/20131/16963 22539/20130/16962 22579/20129/16961
f 22541/20134/16966 22543/20131/16963 22542/20132/16964 22600/20133/16965
f 22540/20136/16968 22543/20131/16963 22541/20134/16966 22596/20135/16967
f 22539/20130/16962 22543/20131/16963 22540/20136/16968 22578/20137/16969
f 22537/20141/16973 22538/20140/16972 22534/20139/16971 22575/20138/16970
f 22536/20143/16975 22538/20140/16972 22537/20141/16973 22591/20142/16974
f 22535/20145/16977 22538/20140/16972 22536/20143/16975 22592/20144/16976
f 22534/20139/16971 22538/20140/16972 22535/20145/16977 22574/20128/16959
f 22532/20149/16981 22533/20148/16980 22530/20147/16979 22576/20146/16978
f 22531/20151/16983 22533/20148/16980 22532/20149/16981 22589/20150/16982
f 22537/20141/16973 22533/20148/16980 22531/20151/16983 22591/20142/16974
f 22530/20147/16979 22533/20148/16980 22537/20141/16973 22575/20138/16970
f 22528/20155/16985 22529/20154/16985 22526/20153/16984 22577/20152/16984
f 22527/20157/16987 22529/20154/16985 22528/20155/16985 22587/20156/16986
f 22532/20149/16981 22529/20154/16985 22527/20157/16987 22589/20150/16982
f 22526/20153/16984 22529/20154/16985 22532/20149/16981 22576/20146/16978
f 22540/20136/16968 22525/20159/16989 22523/20158/16988 22578/20137/16969
f 22524/20160/16990 22525/20159/16989 22540/20136/16968 22596/20135/16967
f 22528/20155/16985 22525/20159/16989 22524/20160/16990 22587/20156/16986
f 22523/20158/16988 22525/20159/16989 22528/20155/16985 22577/20152/16984
f 22545/20127/16958 22522/20161/16991 22534/20139/16971 22574/20128/16959
f 22521/20162/16992 22522/20161/16991 22545/20127/16958 22593/20126/16955
f 22520/20164/16995 22522/20161/16991 22521/20162/16994 22594/20163/16993
f 22534/20139/16971 22522/20161/16991 22520/20164/16995 22575/20138/16970
f 22520/20164/16995 22519/20165/16996 22530/20147/16979 22575/20138/16970
f 22518/20166/16997 22519/20165/16996 22520/20164/16995 22594/20163/16993
f 22517/20168/16999 22519/20165/16996 22518/20166/16997 22590/20167/16998
f 22530/20147/16979 22519/20165/16996 22517/20168/16999 22576/20146/16978
f 22517/20168/16999 22516/20169/17000 22526/20153/16984 22576/20146/16978
f 22515/20170/17001 22516/20169/17000 22517/20168/16999 22590/20167/16998
f 22514/20172/17003 22516/20169/17000 22515/20170/17001 22588/20171/17002
f 22526/20153/16984 22516/20169/17000 22514/20172/17003 22577/20152/16984
f 22565/20098/17007 22513/20174/17006 22511/20173/17005 22610/20099/17004
f 22512/20175/17008 22513/20174/17007 22565/20098/17007 22603/20097/17008
f 22541/20134/16966 22513/20174/17010 22512/20175/17009 22596/20135/16967
f 22511/20173/17005 22513/20174/17010 22541/20134/16966 22600/20133/16965
f 22509/20179/17014 22510/20178/17013 22506/20177/17012 22604/20176/17011
f 22508/20181/17016 22510/20178/17013 22509/20179/17014 22609/20180/17015
f 22507/20183/17018 22510/20178/17018 22508/20181/17017 22597/20182/17017
f 22506/20177/17019 22510/20178/17018 22507/20183/17018 22595/20184/17019
f 22570/20089/16919 22505/20185/17020 22546/20125/16954 22612/20090/16920
f 22504/20186/17021 22505/20185/17020 22570/20089/16919 22607/20088/16918
f 22521/20162/16992 22505/20185/17023 22504/20186/17022 22594/20163/16993
f 22546/20125/16956 22505/20185/17023 22521/20162/17024 22593/20126/16955
f 22535/20145/16977 22503/20187/17025 22544/20123/16960 22574/20128/16959
f 22502/20188/17026 22503/20187/17025 22535/20145/16977 22592/20144/16976
f 22561/20103/17030 22503/20187/17029 22502/20188/17028 22611/20104/17027
f 22544/20123/16952 22503/20187/17029 22561/20103/16935 22573/20092/16922
f 22560/20105/17032 22501/20190/17032 22500/20189/17031 22608/20106/17031
f 22502/20188/17028 22501/20190/17032 22560/20105/17032 22611/20104/17028
f 22536/20143/16975 22501/20190/17033 22502/20188/17026 22592/20144/16976
f 22500/20189/17034 22501/20190/17033 22536/20143/16975 22591/20142/16974
f 22498/20192/17036 22499/20191/17035 22504/20186/17021 22607/20088/16918
f 22497/20194/17038 22499/20191/17035 22498/20192/17036 22606/20193/17037
f 22518/20166/16997 22499/20191/17040 22497/20194/17039 22590/20167/16998
f 22504/20186/17022 22499/20191/17040 22518/20166/16997 22594/20163/16993
f 22557/20110/17042 22496/20196/17042 22495/20195/17041 22605/20111/17041
f 22500/20189/17031 22496/20196/17042 22557/20110/17042 22608/20106/17031
f 22531/20151/16983 22496/20196/17043 22500/20189/17034 22591/20142/16974
f 22495/20195/17044 22496/20196/17043 22531/20151/16983 22589/20150/16982
f 22493/20198/17046 22494/20197/17045 22497/20194/17038 22606/20193/17037
f 22492/20200/17048 22494/20197/17045 22493/20198/17046 22601/20199/17047
f 22515/20170/17001 22494/20197/17050 22492/20200/17049 22588/20171/17002
f 22497/20194/17039 22494/20197/17050 22515/20170/17001 22590/20167/16998
f 22553/20116/17052 22491/20202/17052 22490/20201/17051 22602/20117/17051
f 22495/20195/17041 22491/20202/17052 22553/20116/17052 22605/20111/17041
f 22527/20157/16987 22491/20202/17053 22495/20195/17044 22589/20150/16982
f 22490/20201/17054 22491/20202/17053 22527/20157/16987 22587/20156/16986
f 22549/20122/17055 22489/20203/17055 22512/20175/17008 22603/20097/17008
f 22490/20201/17051 22489/20203/17055 22549/20122/17055 22602/20117/17051
f 22524/20160/16990 22489/20203/17056 22490/20201/17054 22587/20156/16986
f 22512/20175/17009 22489/20203/17056 22524/20160/16990 22596/20135/16967
f 22487/20205/17058 22488/20204/17057 22492/20200/17048 22601/20199/17047
f 22506/20177/17012 22488/20204/17057 22487/20205/17058 22604/20176/17011
f 22486/20206/17061 22488/20204/17060 22506/20177/17019 22595/20184/17059
f 22492/20200/17049 22488/20204/17060 22486/20206/17061 22588/20171/17002
f 22484/20208/17063 22485/20207/17062 22555/20108/16939 22586/20113/16944
f 22498/20192/17036 22485/20207/17062 22484/20208/17063 22606/20193/17037
f 22571/20087/16917 22485/20207/17062 22498/20192/17036 22607/20088/16918
f 22555/20108/16939 22485/20207/17062 22571/20087/16917 22585/20084/16914
f 22482/20210/17065 22483/20209/17064 22551/20114/16945 22584/20119/16948
f 22493/20198/17046 22483/20209/17064 22482/20210/17065 22601/20199/17047
f 22484/20208/17063 22483/20209/17064 22493/20198/17046 22606/20193/17037
f 22551/20114/16945 22483/20209/17064 22484/20208/17063 22586/20113/16944
f 22480/20212/17067 22481/20211/17066 22548/20120/16949 22583/20093/16923
f 22487/20205/17058 22481/20211/17066 22480/20212/17067 22604/20176/17011
f 22482/20210/17065 22481/20211/17066 22487/20205/17058 22601/20199/17047
f 22548/20120/16949 22481/20211/17066 22482/20210/17065 22584/20119/16948
f 22478/20214/17069 22479/20213/17068 22563/20094/16924 22582/20101/16931
f 22509/20179/17014 22479/20213/17068 22478/20214/17069 22609/20180/17015
f 22480/20212/17067 22479/20213/17068 22509/20179/17014 22604/20176/17011
f 22563/20094/16924 22479/20213/17068 22480/20212/17067 22583/20093/16923
f 22514/20172/17003 22477/20215/17070 22523/20158/16988 22577/20152/16984
f 22486/20206/17061 22477/20215/17070 22514/20172/17003 22588/20171/17002
f 22476/20216/17072 22477/20215/17070 22486/20206/17061 22595/20184/17071
f 22523/20158/16988 22477/20215/17070 22476/20216/17072 22578/20137/16969
f 22476/20216/17072 22475/20217/17073 22539/20130/16962 22578/20137/16969
f 22507/20183/17074 22475/20217/17073 22476/20216/17072 22595/20184/17071
f 22474/20218/17076 22475/20217/17073 22507/20183/17074 22597/20182/17075
f 22539/20130/16962 22475/20217/17073 22474/20218/17076 22579/20129/16961

usemtl default

